<?xml version="1.0" standalone="yes"?>
<svg width="1329" height="810">
<path style="fill:#000000; stroke:none;" d="M45 500C73.6667 500 102.333 500 131 500C131 495.309 126.344 495.508 123 493C117.745 489.059 116.367 484.467 115 479C113.833 474.333 115 467.833 115 463C115 451.667 115 440.333 115 429C115 392.333 115 355.667 115 319C115 303.268 112.306 283.776 116 269C117.074 264.703 117.295 260.745 122 258C128.928 253.958 137.471 260.958 141 266C142.212 267.732 142.211 270.466 144 272C144.48 272.411 147.321 272 148 272C148 260.667 148 249.333 148 238C146.91 238 143.905 237.457 143 238C140.902 239.259 140.195 243.207 139 245C135.55 250.176 127.757 254.838 122 251C119.251 249.168 114.954 243.862 114 241C112.76 237.279 114 230.957 114 227C114 216.667 114 206.333 114 196C114 182.333 114 168.667 114 155C114 147.421 113.273 138.906 115 132C115.784 128.863 114.216 125.137 115 122C117.944 110.222 120.073 97.7095 123 86C125.039 77.845 125.81 69.1827 130 62C132.979 56.8938 137.81 52.7707 142 49C145.165 46.1511 147.256 43.1861 152 42C161.557 39.6108 168.972 46.8861 171 55C172.632 61.5276 166.35 72.8833 160 75C157.08 75.9734 153.015 71.9776 151 75C149.518 77.2231 152.38 79.595 154 80C158.306 81.0765 163.797 78.8683 167 77C175.73 71.9073 177.377 58.5069 175 49C174.615 47.4603 175.5 45.5009 175 44C174.079 41.2369 171.836 39.4481 170 37C168.94 35.5873 167.954 33.1396 166 32C159.279 28.0797 147.006 25.3312 139 28C137.8 28.4 136.2 27.6 135 28C132.254 28.9153 129.685 30.8814 127 32C125.085 32.7977 122.752 32.8322 121 34C116.415 37.0564 113.968 41.7532 110 45C108.573 46.1679 105.361 47.7753 104 49C102.188 50.6312 101.293 53.28 99 55C95.174 57.8695 93.7712 61.3051 91 65C89.3347 67.2205 86.5375 68.6937 85 71C81.517 76.2245 79.9855 83.0435 78 89C77.1764 91.4708 75.0058 93.5861 74 96C72.2649 100.164 71.7348 104.836 70 109C68.5908 112.382 65.894 115.424 65 119C64.5294 120.882 65.4706 123.118 65 125C64.1619 128.352 62.0848 131.746 61 135C60.1994 137.402 61.616 140.536 61 143C59.9753 147.099 59.0384 151.846 58 156C57.451 158.196 58.549 160.804 58 163C55.0932 174.627 57.8727 188.509 55 200C53.9804 204.078 56.0196 208.922 55 213C52.4999 223 56.8811 235.119 49 243C46.4852 245.515 42.1961 250.098 38 248C32.3645 245.182 32.3134 237.728 29 234C28.2394 233.144 25.2032 232.198 24 233C22.0976 234.268 23 238.901 23 241C23 248 23 255 23 262C23 263.447 22.2307 267.846 23 269C24.0789 270.618 26.8926 270.424 28 269L28 267C30.5679 263.405 32.5924 259.31 35 256C37.2052 252.968 39.0132 254.747 42 254C46.4309 252.892 49.77 252.155 53 257C56.6809 262.521 56 270.933 56 278C56 292.333 56 306.667 56 321C56 358 56 395 56 432C56 443.667 56 455.333 56 467C56 471.833 57.1666 478.333 56 483C55.5817 484.673 54.8604 488.525 54 490C51.284 494.656 45 495.162 45 500M154 34C152.997 39.0151 146.924 37.038 143 39C137.199 41.9007 130.212 50.4944 127 56C125.095 59.2659 125.258 63.2903 121 64C120.318 59.9062 118.235 57.7058 114 57C114 60.9031 116.888 62.6632 118 66C118.587 67.7607 117 68.9143 117 70C117 71.8825 119.589 73.643 119 76C118.385 78.4618 116.647 81.4123 116 84C115.538 85.8479 116.6 88.1987 116 90C115.6 91.2 113.4 91.8001 113 93C112.509 94.4736 114.843 95.9763 114 98L112 100C112 101.585 113 102.197 113 104L111 106C110.606 107.575 112.699 108.904 112 111C111.416 112.751 110.343 112.942 110 115C106.098 115 96 105.355 96 115C96 114.875 96.9263 117.558 97 118C98.4615 117.756 100.59 116.412 102 117C104.837 118.182 108.19 123.57 109 126C109.974 128.923 109 133.891 109 137C109 146 109 155 109 164C100.843 162.64 106.048 152.226 103 147C100.377 142.503 95.8939 139.341 93 135C91.5443 132.816 91.6433 130.573 91 128C89.4911 121.964 87.0143 112.978 91 107C92.5613 104.658 96.5754 100.414 99 99C102.074 97.2068 104.076 97.8474 106 94C104.51 93.5034 103.739 93 102 93C102.617 89.2968 104.935 88.0978 107 85C110.003 80.4955 109.988 72.9882 106 69C104.9 72.3007 106.136 76.5919 105 80C103.4 84.7989 99.4551 89.5809 97 94C95.9627 95.8672 94.1465 95.5669 93 97C90.8231 99.7212 89.0115 103.983 87 107C84.3793 106.563 84.1568 106.314 83 104L82 104C81.9476 104.105 80.0246 107.221 80 107C80.2933 109.64 84.3102 112.241 85 115C85.693 117.772 84.0993 121.298 85 124C85.7943 126.383 90.1275 131.809 88 135C86.5994 137.101 83.0958 136.301 81 137C76.902 138.366 72.8287 143.315 74 148C75.1008 152.403 76.3032 157.224 79 161L79 163C80.0689 164.527 81.1632 163.326 82 165C83.8858 168.772 89.0518 175.267 88 180C87.7327 181.203 86.4212 182.736 86 184C80.7685 184 79.2143 178.796 77 175C75.1953 171.906 72.613 169.226 71 166C69.2269 162.454 69.5325 157.678 68 154C66.7438 150.985 64.0895 145.642 65 142C65.7097 139.161 68.0885 136.734 69 134C69.5887 132.234 68.9424 130.586 70 129C72.5329 125.201 75.5118 125.535 74 121C72.4955 121.502 71.5045 122.499 70 123C70 119.001 71.822 115.534 73 112C76.3316 102.005 80.292 84 94 84C91.0127 79.519 90.8543 81 86 81C86.8541 75.8753 89.8312 74.2251 93 70C97.9227 63.4364 103.079 57.9211 109 52C112.679 48.321 116.755 43 122 43C122.528 46.1655 122.725 47.4542 126 48C126 46.101 126.673 45.4716 127 44C127.416 42.1284 126.946 40.5809 128 39C134.333 29.5004 144.819 34 154 34M1250 233C1250.68 233 1253.52 233.411 1254 233C1255.61 231.622 1256.8 228.606 1258 227C1260.56 223.585 1264.35 219.91 1267 217C1271.48 212.077 1277.4 207.198 1283 203C1287.37 199.724 1291.13 194.866 1295 191C1300.04 185.958 1303.96 183.042 1309 178C1306.15 172.3 1297.84 174.228 1293 171C1289.14 168.424 1287 163.998 1284 161C1281.77 158.765 1279.05 157.73 1277 155C1275.87 153.5 1274.86 151.395 1273 150C1270.9 148.428 1267.71 146.571 1266 144C1264.46 141.689 1263.6 138.395 1262 136C1259.09 131.635 1257.44 127.386 1255 123C1254.33 121.787 1252.5 120.317 1251 121C1248.8 122.001 1249.67 123.482 1249 125C1247.64 128.049 1245.47 131.062 1244 134C1239.86 142.29 1232.32 151.759 1224 158C1222 159.5 1218.98 160.679 1217 162C1212.77 164.82 1209.46 168.771 1205 171C1202.89 172.056 1197 173.255 1196 176C1195.44 177.543 1197.88 179.593 1199 180C1201.23 180.81 1203.74 180.248 1206 181C1209.64 182.215 1212.63 185.033 1216 187C1222.78 190.954 1228.36 197.021 1235 202C1239.3 205.227 1246.83 210.793 1249 216C1251.43 221.823 1250 226.957 1250 233M1259 144C1260.11 146.228 1261.59 146.233 1263 148C1267.18 153.228 1268 157.933 1268 165C1268 166.569 1268.59 169.573 1268 171C1265.07 178.032 1252 187.475 1252 174C1253.67 174 1255.33 174 1257 174C1256.02 168.126 1247.51 167.859 1247 174C1246.73 177.208 1249.87 180.28 1251 183C1252.05 185.528 1249.74 186.234 1249 188C1248.21 189.898 1248 192.865 1248 195C1253.3 194.116 1250.53 191.088 1253 188C1255.34 185.069 1261.01 184.241 1264 182C1268.18 178.865 1268.16 173 1273 173C1273.64 176.813 1274.69 179 1279 179C1277.99 172.959 1270.66 168.678 1274 162C1279.22 164.608 1285.27 170.546 1288 176C1288.6 177.196 1289.84 179.328 1289 181C1288.02 182.967 1285.34 183.992 1284 185C1280.29 187.785 1277.25 192.583 1273 194C1271.67 194.445 1264.12 194.743 1263 194C1260.42 192.279 1262.93 190.655 1259 190C1259 193.085 1259.12 195.37 1260 198C1257.49 199.505 1256 201.549 1256 205C1259.82 204.363 1259.48 202.02 1262 200C1263.51 198.796 1265.95 199 1268 199C1268 204.728 1259.99 210.007 1256 214L1255 214C1251.54 210.542 1248.76 206.676 1246 203C1244.69 201.254 1241.97 199.94 1241 198C1240.02 196.032 1241.64 193.448 1242 192C1242.39 190.431 1241.61 188.569 1242 187C1242.67 184.316 1244.12 181.626 1245 179C1241.72 177.907 1240.64 178.188 1240 182C1236.48 182 1234.76 181.837 1232 180L1231 182C1232.66 184.32 1235.73 184.672 1237 187C1238.01 188.857 1236.7 192.603 1236 194C1232.94 192.979 1231.74 191.053 1229 189C1227.1 187.578 1223.29 185.579 1222 183C1220.61 180.227 1223.24 177.614 1225 176C1228.91 172.417 1233.71 169.86 1238 167C1239.48 166.014 1240.42 163.792 1242 163C1246.99 160.506 1256 165.735 1256 157C1251.9 157.684 1251.27 159.422 1247 158C1247.84 152.932 1253.73 148.547 1256 144C1257 144 1258 144 1259 144M89 153C90.875 156.75 93.977 155.801 97 158C99.2146 159.611 100.621 162.931 102 165C103.026 166.538 104.974 167.462 106 169C111.47 177.205 111.293 187.829 109 197C108.49 199.04 108.677 206.806 104 204C98.0345 200.421 105.559 191.677 104 187C103.41 185.231 101.763 183.716 101 182C100.473 180.815 100.839 179.049 100 178C98.7054 176.382 96.3735 176.06 95 174C94.1182 172.677 93.8818 170.323 93 169C90.3752 165.063 84.241 164.964 83 160C82.3925 157.57 85.0644 154.871 86 153C87 153 88 153 89 153M69 171C71.9482 174.538 72.9105 178.239 75 182C75.7367 183.326 77.1451 183.259 77 185C76.8594 186.688 74 189.195 74 191L75 191C75.7333 195.4 76.6071 200.411 79 204C81.0395 207.059 84.9315 207.794 86 211C86.9602 213.881 84.1684 223.779 80 221C78.1396 219.76 78.3307 215.663 77 214C75.7063 212.383 73.2554 212.152 72 210C70.8761 208.073 71.3631 204.874 70 203C68.8235 201.382 66.9059 201.449 66 200C63.0986 195.358 63.7137 188.145 65 183C66.2844 177.862 64.0855 173.949 69 171M95 180C95.3887 182.332 96.8873 185.338 96 188C94.1304 193.609 89.8633 198.41 88 204C87 204 86 204 85 204C84.2644 201.793 81.3695 198.522 82 196C82.5631 193.747 84.8073 192.045 86 190C88.7642 185.261 87.9308 180 95 180M97 198C98.1794 201.538 99.5205 205.548 101 209L103 210C103.918 211.653 103.39 215.17 104 217C106.051 223.153 107.394 229.576 109 236C109.483 237.934 108.314 238.588 108 240C107.468 242.395 108 245.537 108 248C99.1762 246.529 103.603 235.411 102 229C100.902 224.607 99.2537 218.863 97 215C95.1489 211.827 91.8767 209.507 91 206C90.4254 203.702 93.824 199.764 95 198L97 198M78 261C76.8728 257.618 74.5958 255.192 73 252C70.9081 247.816 69.353 243.034 67 239C65.1983 235.911 62.8558 233.423 62 230C60.8606 225.442 62 222.245 62 218C62 212.849 60.8068 209.79 64 205C69.665 205.944 67.9548 211.91 70 216C72.4144 220.829 71.3063 223.919 73 229C75.5987 236.796 82.3849 243.155 85 251C86.7111 256.133 82.9949 261 78 261M91 215C95.508 221.762 96.2235 228.776 90 235C88.7567 236.243 86.8446 239.168 85 239C81.9924 238.727 78.8934 232.32 80 229C80.6698 226.991 82.6676 225.776 84 224C86.0217 221.304 87.1065 217.84 89 215L91 215M95 236C95 243.28 102.137 252.206 106 258C107.548 260.323 110.137 262.412 111 265C113.555 272.666 110.078 283.766 108 290L106 290C105.633 289.266 104.255 287.764 104 287C103.317 284.952 104.623 283.507 105 282C105.579 279.683 105.579 274.317 105 272C103.216 264.865 96.7309 261.396 93 255C92.1109 253.476 91.7051 250.692 91 249C90.4231 247.616 87.5359 243.392 88 242C88.6054 240.184 91.9398 237.59 93 236L95 236M781 340C787.086 338.986 787 332.378 787 327C787 322.734 787.072 318.713 788 315C788.385 313.46 787.5 311.501 788 310C788.684 307.947 790.882 306.916 792 305L792 303C796.711 297.504 800.161 293.72 807 296C807 291.994 807.587 290 803 290C803.628 288.953 805.627 287.994 806 287C806.323 286.139 805.627 284.838 806 284C807.517 280.587 812.628 275.248 816 273C819.832 270.445 827 270.38 827 265C820.523 266.079 815.502 272 809 272C809 265.54 804.83 264 799 264C798.095 264 795.775 263.577 795 264C790.708 266.341 793.056 272.528 796 274C797.035 271.93 797 270.528 797 268C801.76 268 806.888 271.337 805 277C803.296 282.111 798.364 285.515 795 290C792.502 293.331 790.508 298.249 786 299C786 287.664 785 277.459 785 266C785 262.342 784.958 259.125 786 256C786.356 254.933 785.43 252.951 786 252C788.12 248.467 797.21 250 801 250C813 250 825 250 837 250C840.017 250 847.421 248.593 850 250C854.336 252.365 851.104 260.969 852 265C852.267 266.203 853.579 267.736 854 269C860.302 269 857.568 262.744 861 259C866.79 252.684 872.28 251.36 879 248L879 246C872.258 242.629 858.873 245 851 245C828.667 245 806.333 245 784 245C777 245 770 245 763 245C760.241 245 756.572 244.117 755 247C753.65 249.475 756.412 251.206 758 252C763.498 254.749 771.298 258.654 775 265C775.804 266.379 777.472 269.417 778 271C778.801 273.402 777.384 276.536 778 279C779.799 286.197 779 295.119 779 303C779 308.805 780 314.727 780 321C780 327.199 779.162 334.486 781 340M838 285C835.896 289.209 830.954 289.046 828 292C827.045 292.955 826.769 295.847 826 297C824.395 299.408 821.931 300.069 820 302C816.456 305.544 813.355 309.645 810 313C809.119 313.881 807.059 313.823 806 315C802.751 318.61 800.382 323.189 798 327C797.113 328.419 794.982 328.127 794 329C790.901 331.755 789.476 337.698 787 341C784.235 344.686 780.228 347.18 778 351C775.963 354.491 775.246 358.631 773 362C771.235 364.648 771.954 366.137 771 369C770.089 371.734 767.71 374.161 767 377C766.061 380.754 767.205 385.819 768 389C768.862 392.448 767.94 394.323 772 395C772 387.809 770.326 381.695 772 375C773.024 370.903 775.85 367.686 778 364C780.933 358.972 783.768 352.848 787 348C788.66 345.51 791.217 345.179 793 343C795.099 340.435 797.007 336.657 799 334C800.665 331.78 803.462 330.306 805 328C813.915 314.627 829.376 302.468 842 293C847.1 289.175 851.536 284.187 857 281C865.077 276.288 873.936 272.704 882 268C886.555 265.343 890.225 261.989 895 260C900.815 257.577 906.973 257.009 913 255C913.877 254.708 915.11 253.198 916 253C918.848 252.367 922.172 253.707 925 253C933.383 250.904 943.718 250.239 952 253C953.588 253.529 954.014 252 955 252C954.596 252 958.407 253.852 959 254C960.882 254.471 963.118 253.529 965 254C967.784 254.696 970.388 255.839 973 257C974.099 257.489 975.927 256.463 977 257C978.935 257.968 980.064 260.14 982 261C983.206 261.536 984.898 261.198 986 262C987.925 263.4 988.322 265.322 990 267C997.96 274.96 1003.28 283.129 1006 294C1007.46 299.835 1005.53 306.103 1007 312C1008.57 318.29 1008 325.009 1006 331C1002.92 340.238 994.343 348.057 996 358C996.819 362.916 995.204 368.602 1000 371C1002.47 366.054 998.743 362.029 1000 357C1001.21 352.151 1004.92 343.445 1009 341C1009 345.867 1009.07 350.709 1008 355C1007.62 356.54 1008.5 358.499 1008 360C1004.43 370.699 998.764 380.945 996 392C993.95 400.199 1000.39 408.795 1007 411L1008 410C1006.82 406.474 1004.16 403.475 1003 400C1002.22 397.669 1003.35 394.448 1003 392L1002 390C1002.32 386.108 1005.77 381.677 1007 378C1009.36 370.931 1011.68 363.97 1014 357C1014.75 354.742 1013.8 351.39 1014 349C1014.42 343.918 1014.28 340.106 1013 335C1012.41 332.624 1013.54 330.823 1014 329C1014.66 326.376 1014 322.718 1014 320C1018.62 322.769 1018.03 331.287 1023 334C1023.98 334.536 1026.85 334 1028 334C1025.08 325.228 1018.56 317.545 1015 309C1013.78 306.076 1013 301.267 1013 298C1013 296.307 1013.74 292.482 1013 291C1012.41 289.813 1010.54 289.21 1010 288C1009.33 286.499 1009.63 284.522 1009 283C1005.7 275.084 999.408 266.408 993 260C988.226 255.226 981.059 254.02 975 252C972.996 251.332 971.075 249.519 969 249C965.549 248.137 961.451 249.863 958 249C956.862 248.716 955.139 247.253 954 247C949.886 246.086 945.085 248.021 941 247C934.414 245.353 927.4 246.4 921 248C917.966 248.758 912.717 248.698 910 249C909.176 249.092 907.606 247.465 906 248C899.444 250.185 894.053 254.469 888 258C885.941 259.201 883.088 258.956 881 260C877.931 261.535 875.932 264.046 873 266C869.303 268.464 864.144 270.928 860 273C858.569 273.715 856.58 273.548 855 274L853 276C851.58 276.592 849.42 275.408 848 276L846 278C840.381 278.803 835.32 281.557 830 282C826.983 282.251 821.496 278.84 819 283C817.088 286.186 820.892 287 823 287C828.733 287 832.887 285.852 838 285M336 247C336.674 249.021 338.84 251.481 338 254C334.78 263.659 322.306 268.083 319 278C325.865 281.432 328.13 271.935 334 269C335.052 268.474 337.799 269 339 269C339.041 269.245 338.521 264.827 338 266C339.132 263.453 342.194 263.053 344 262C348.556 259.342 351.895 255.276 357 254C359.954 253.261 362.32 254.34 365 253L365 251C356.116 245.077 350.036 253.661 342 255C342 249.975 341.397 247 336 247M68 254C71.3005 254.55 74.6122 259.131 73 263C71.7263 266.057 67.9981 267.992 69 272C69.9743 275.897 72.9575 278.499 75 282C76.6232 284.783 76.9625 288.283 79 291C80.836 293.448 83.079 295.237 84 298C85.0017 301.005 82.7321 305.634 80 307C74.5241 309.738 70.3048 297.609 69 295C68.1226 293.245 66.7946 291.788 66 290C65.5045 288.885 66.3877 287.163 66 286C64.0991 280.297 59.544 273.368 62 266C63.2757 262.173 65.7402 257.39 68 254M345 267C349.064 267 350.599 264.85 354 264C358.153 262.962 362.132 261.967 366 261C370.869 259.783 382.131 259.783 387 261C390.645 261.911 392.698 264 397 264C394.804 259.609 391.67 257.557 387 256C384.898 255.299 382.156 256.539 380 256C377.278 255.32 373.293 254.177 370 255C366.273 255.932 362.584 257.805 359 259C352.999 261 346.282 259.31 345 267M90 257C91.9112 259.867 95.5543 261.53 97 265C98.0013 267.403 95.9604 268.354 95 270C91.7697 275.538 86.6777 280.483 83 286C78.6167 285.269 79.7851 283.06 78 280L76 278C75.1434 272.004 78.7693 269.308 82 265C84.4036 261.795 85.2695 257.788 90 257M317 319C317 315.119 315.565 311.955 315 308L314 306L316 304C316.375 301.372 316.589 299.117 318 297C320.786 292.821 326 292.887 326 287C320.426 287.929 318.095 292.543 314 295C314 289.197 313.27 281.681 316 277C318.752 272.282 324.079 269.526 325 264L324 263C318.54 263.91 315.29 268.421 313 273C312.164 274.672 310.585 276.245 310 278C309.5 279.501 310.385 281.46 310 283C308.716 288.134 310 294.805 310 301C310 307.481 309.267 317.711 317 319M411 277C411 269.989 404.012 271.253 399 270C395.21 269.052 391.953 266.988 388 266C386.423 265.606 382.998 262.668 381 264C379.471 265.019 379.472 267.981 381 269C382.101 269.734 384.718 268.573 386 269C387.755 269.585 389.328 271.164 391 272C394.145 273.573 396.514 273.128 400 274C403.68 274.92 406.891 277 411 277M96 277C97.7973 279.157 97.648 280.972 99 283C104.814 291.721 108 299.794 108 311C108 313.622 108.994 318.615 108 321C107.018 323.356 106 323.096 106 326C95.8823 324.314 102.708 311.83 101 305C99.8378 300.351 98.7727 298.159 96 294C93.889 290.833 93.8844 288 89 288C89 284.063 92.8147 278.593 96 277M403 281C403.871 283.614 406.413 287.608 405 291C403.926 293.577 401.896 295.313 401 298C407.599 301.299 410.926 289.779 409 284C408.612 282.837 406.694 281.041 406 280C404.203 280 404.479 280.014 403 281M854 290C855.713 295.14 853.002 300.196 851 305C850.407 306.424 850.76 308.698 850 310C847.483 314.315 840.594 315.187 843 320C846.982 318.673 850.252 315.874 854 314C854 323.401 857.461 336.154 855 346C854.421 348.317 853.42 350.478 853 353C847.919 350.46 838.38 338.861 835 349C836.574 349.787 838.531 349.266 840 350C842.33 351.165 843.903 354.427 846 356C848.006 357.505 851.488 359.409 853 362C854.715 364.94 852.928 368.784 854 372L856 374C854.457 379.4 857.12 387.639 855 394C854.268 396.196 851.893 397.856 851 400C849.775 402.94 849.107 404.446 846 406C844.094 400.281 839.44 394.76 838 389C837.301 386.204 839.513 381.591 839 378L837 376C836.188 374.052 837.939 370.879 837 369C836.208 367.417 833.986 366.479 833 365C830.943 361.915 828.788 357.535 826 355C824.43 353.573 822.37 353.056 821 351C818.998 347.997 820.25 343.998 821 341C821.385 339.46 820.5 337.501 821 336C822.175 332.474 825.614 328.693 829 327C829.891 329.673 830.327 330.109 833 331L834 330C833.642 328.925 833 328.191 833 327L834 325C832.486 320.836 827.043 323.978 825 325C819.129 327.935 817.448 337.206 816 343C815.658 344.369 816.665 346.781 816 348C812.888 353.706 803 345.807 803 354C805.988 354 808.879 351.96 812 353C816.9 354.633 822.46 357.921 825 363C820.329 363 816.959 365.35 813 367C811.086 367.798 808.752 367.832 807 369C803.481 371.346 800.682 376.636 799 380C797.959 382.082 796.049 384.147 797 387C797.491 388.474 799.521 389.562 800 391C800.833 393.499 800.667 395.716 802 398C803.097 399.88 805.031 401.062 806 403C807.18 405.36 806.979 408.551 808 411C808.842 413.021 810.73 414.095 812 416C812.524 416.785 812.599 419.064 813 420L815 422C814.927 422.882 812.445 424.198 812 425C811.082 426.652 808.133 434.854 805 434C803.517 433.596 802.777 430.999 802 430C799.305 426.535 794.678 424.028 793 420C789.777 412.264 787.029 403.114 785 395C784.052 391.209 785 385.927 785 382C785 375.111 784 368.382 784 362C779.158 362.968 777 371.729 777 377C777 385.229 776 393.272 776 401C776 406.135 777.24 413.042 776 418C774.055 425.78 775 435.515 775 444C775 449.047 774 452.882 774 458C774 462.531 775.094 468.625 774 473C772.409 479.366 774.655 487.379 773 494C770.982 502.071 772 512.213 772 521C772 537.333 772 553.667 772 570C772 582.667 772 595.333 772 608C772 613.204 770.797 620.595 773 625C777.585 623.472 776 617.873 776 613C776 608.433 776 604.001 777 600C777.706 597.176 776.294 593.824 777 591C777.978 587.087 779 583.424 779 579C781.655 579.442 782.661 581.22 785 582C789.805 583.602 795.041 582.88 799 580C803.555 576.687 805 569.478 805 564C805 562.799 805.526 560.052 805 559C803.227 555.455 797.087 554.029 794 553C792.349 556.302 791 558.945 791 563C793.185 562.636 796.302 558.576 798 559C801.636 559.909 800.315 563.112 800 565C799.307 569.157 795.243 579.561 789 578C780.923 575.981 776.277 564.169 779 556C779.764 553.707 781.4 551.398 782 549C782.808 545.769 783.176 542.736 785 540C786.711 537.433 789.293 537.328 791 536C792.822 534.583 792.343 530.852 790 530C787.484 529.085 781.159 534.921 779 536C779 523.868 777.331 511.675 780 501C780.385 499.46 779.5 497.501 780 496C780.533 494.4 782.162 493.508 783 492C784.252 489.746 785.181 486.457 786 484C788.574 484.858 796 489.569 796 493C796 494.377 793.455 496.635 793 498C792.188 500.437 792.188 508.563 793 511C793.766 513.299 795.751 514.859 797 517C798.98 520.394 800.02 524.606 802 528C806.084 535.001 811.46 542.379 814 550C814.886 552.657 814 557.174 814 560C819.025 560 820.18 554.719 819 550C817.813 545.254 814.855 541.452 813 537C812.189 535.053 812.075 532.842 811 531C808.345 526.449 803.875 522.249 803 517C807.387 517.731 812.256 521.791 817 521C821.558 520.24 825.101 516.599 829 514C830.301 513.133 832.741 512.916 834 512C838.417 508.788 842.96 499.879 841 494C840.668 493.004 839.332 491.996 839 491C838.644 489.933 839.57 487.951 839 487C838.16 485.6 836.176 485.512 835 484C834.057 482.788 833.805 481.036 833 480C831.34 477.866 828.357 476.326 827 474C824.645 469.964 821.262 463.131 817 461L817 460C820.051 458.169 824.233 452.534 826 449L827 449C828.068 451.137 830.473 456.473 832 458C833.278 459.278 835.573 459.037 837 461C839.784 464.828 841.127 470.169 844 474C845.086 475.448 846.772 475.311 848 477C848.89 478.223 850.498 481.493 851 483C851.919 485.758 849.606 490.49 851 493L853 494C853.654 498.58 851.291 503.127 850 507C849.608 508.176 850.475 509.86 850 511C848.865 513.725 845.834 515.554 844 518C842.329 520.229 841.628 523.029 839 525C836.032 527.226 832.412 527.863 829 529C827.718 529.427 824.994 529.227 824 530C820.154 532.991 825.032 536 828 536C827.671 537.971 825.709 541.252 826 543C826.267 544.603 828.948 547.368 831 546C832.878 544.748 831.823 540.765 833 539C834.714 536.429 837.904 534.572 840 533C844.875 529.344 847.948 524.052 852 520C852.512 523.072 852 527.793 852 532C858.438 532 856.746 529.016 858 524C860.746 513.014 859 498.806 859 487C859 484.795 859.561 483.757 860 482C861.021 477.917 860 472.229 860 468C860 458 860 448 860 438C860 406 860 374 860 342C860 329 860 316 860 303C860 296.737 861.894 290 854 290M82 324C79.0139 322.507 76.0059 317.988 78 314C79.2024 311.595 82.6416 310.329 84 308C85.6853 305.111 87.3633 297.653 91 296C93.8833 294.689 95.8365 299.038 96 301C96.4782 306.738 94.3957 310.925 91 315C88.3234 318.212 84.9581 321.042 82 324M304 297C302.217 299.674 302.76 300.961 302 304C301.391 306.437 298.964 308.892 300 312C304.682 326.046 318.986 336.991 331 345C333.497 346.665 337.335 350.503 339 353C341.243 356.365 341.624 361.688 347 359C343.832 349.496 334.125 344.376 331 335C329.845 331.536 330.521 326.874 331 324C331.22 322.681 329.908 319.368 330 319C330.497 317.012 332.599 316.404 333 314C331.851 314 328.983 313.464 328 314C325.524 315.35 326 317.636 326 320C326 325.75 327 330.554 327 336C323.612 334.306 320.978 330.73 318 328C313.032 323.446 307.16 318.481 305 312C303.512 307.535 306 301.716 306 297L304 297M65 302C73.096 303.349 71.7034 316.349 75 322C78.1171 327.344 80.4102 332.273 86 336C88.8838 337.923 94.1676 336.005 95 341C96.2612 348.567 82.3659 347.693 79 345C77.3845 343.708 76.1749 340.567 75 339C73.057 336.409 69.7938 334.691 68 332C66.5646 329.847 66.817 326.451 66 324C63.5984 316.795 61.2311 309.538 65 302M84 428C84.9235 422.459 90.0913 419.264 94 415C96.5937 412.171 98.2799 409.096 100 406C100.879 404.418 102.994 403.509 104 402C106.044 398.934 105.217 394.757 109 394C109 427.333 109 460.667 109 494C98 494 87 494 76 494C76.7044 489.774 80.2077 489.513 83 487C86.7229 483.649 89.5074 478.522 88 474L86 474C83.0496 482.851 72.5122 492 63 492C63 488.891 62.0255 483.923 63 481C63.4881 479.536 65.1545 479.854 65 478C64.9448 477.338 63.1483 475.667 63 475C62.5425 472.941 63.4149 467.34 64 465C64.6823 462.271 65.0736 458.779 66 456C67.017 452.949 69 451.683 69 448C66.2382 448.921 65.4527 450.509 63 451C61.4545 447.909 62.2454 446.019 63 443C64.3854 437.458 63 429.74 63 424C66.2561 424.651 68.8307 430.746 71 434C71.6882 435.032 72.8502 438.586 75 438C77.7305 437.255 76.8262 434.416 76 433C74.7511 430.859 72.7663 429.299 72 427C71.4997 425.499 72.3849 423.54 72 422C69.4602 411.841 74 402.238 74 392C65.4346 393.428 68.8026 403.395 66 409L64 409C58.5328 392.598 59.4988 372.015 61 354C61.3325 350.01 63.9066 343.349 66 340C66.6232 339.003 68.8687 338.434 70 339C71.6386 339.819 72.3206 341.777 73 343C75.861 348.15 74.1889 349.075 72 354C71.5158 355.089 72.2916 356.834 72 358C71.6233 359.507 70.3172 360.952 71 363C72.8312 368.493 77.397 372.794 80 378C81.9133 381.827 82.9651 387.86 84 392C85.5602 398.241 80.2332 402.699 82 408L84 408C85.1754 404.474 87.8416 401.475 89 398C89.6463 396.061 89.0747 394.851 90 393C92.2521 394.126 94.0324 396.032 96 398C97.591 393.227 94.6832 393.025 92 389C90.6877 387.032 90.3123 383.968 89 382C86.2898 377.935 83.4739 376.422 82 372C86.53 372 89.2468 371.564 93 370C94.4839 369.382 96.685 368.877 98 368C110.59 359.607 100.045 346.135 97 337C96.2922 334.877 97.2801 332.92 96 331C94.5179 328.777 91.1892 327.378 90 325C88.6863 322.373 91.832 316.68 95 318C96.6784 318.699 97.2289 321.009 98 322C100.55 325.279 103.462 328.309 105 332C105.787 333.89 105.344 336.031 106 338C106.292 338.877 107.802 340.111 108 341C109.927 349.669 109 359.73 109 369C109 372.625 109.875 377.5 109 381C108.476 383.095 106.83 385.008 106 387C104.631 390.286 104.139 393.583 103 397C102.33 399.009 100.332 400.224 99 402C95.4407 406.746 92.8872 411.001 88 415C84.4266 417.924 76.0249 426.671 84 428M324 345C319.275 354.45 331.184 359.113 336 365C342.51 372.957 351.992 376.745 361 382C366.696 385.323 370.534 390.9 376 395C380.56 398.42 387.371 403.742 390 409C386.718 405.718 384.674 403 380 403C380 406.757 381.356 406.017 384 408C387.781 410.835 393.404 415.107 396 419C400.678 426.016 402 433.951 402 443C393.761 441.627 395.454 435.89 393 430C392.158 427.979 390.27 426.905 389 425C384.545 418.317 378.695 409.539 371 408C371 415.8 377.649 420.053 375 428L374 428C372.871 424.614 369.76 423.521 368 420C363.699 411.397 359.716 401.917 356 393C354.971 390.531 355.922 387.536 355 385C354.283 383.028 350.625 381.563 349 384C347.169 386.746 351.146 391.951 352 394C355.629 402.71 357.702 412.809 360 422C361.24 426.958 360 433.865 360 439C360 454.047 360.373 470.105 355 483C352.612 488.73 350.827 497.155 344 500C342.86 500.475 341.176 499.608 340 500C331.106 502.965 321.048 495.683 313 493C308.773 491.591 304.124 491.375 300 490C302.27 494.54 306.299 495.533 310 498C313.579 500.386 317.004 504.668 321 506C324.314 507.105 327.593 507.148 331 508C333.84 508.71 337.083 510.271 340 511C342.51 511.627 345.49 510.373 348 511C350.722 511.68 354.707 512.823 358 512C373.145 508.214 386.783 503.217 398 492C400.194 489.806 403.133 488.8 405 486C407.651 482.024 409.189 477.346 411 473C413.692 466.539 416.017 456.069 414 448C413.329 445.318 413.66 441.968 413 439C412.802 438.111 411.292 436.877 411 436C410.5 434.5 411.5 432.5 411 431C407.271 419.813 396.65 406.077 388 399C384.277 395.954 382.769 391.827 379 389C375.891 386.668 372.511 383.341 369 381C365.154 378.436 359.9 377.6 356 375C349.427 370.618 344.029 365.526 338 360C335.472 357.683 332.076 356.114 330 353C328.402 350.604 327.68 347.521 326 345L324 345M1024 357C1022.62 359.759 1020.19 362.153 1019 365C1018.06 367.257 1018.61 369.557 1018 372C1016.76 376.96 1016 381.199 1016 387C1014.03 386.672 1008.63 384.513 1009 389C1009.17 391.01 1012.07 394.134 1013 396C1014.68 399.355 1016.09 404.379 1017 408C1018.05 412.182 1015.88 416.49 1015 420C1014.1 423.602 1015.17 427.498 1014 431C1011.45 438.658 1007.59 445.119 1003 452C1000.67 455.491 999.507 458.785 996 462C990.928 466.65 985.256 469.496 980 473C977.446 474.702 975.803 477.066 973 478C969.709 479.097 966.291 478.903 963 480C960.54 480.82 958.46 483.18 956 484C954.8 484.4 953.2 483.6 952 484C949.224 484.925 946.741 487.086 944 488C941.075 488.975 938.064 488.234 935 489C932.924 489.519 931.004 491.332 929 492C926.419 492.86 923.56 492.147 921 493C917.523 494.159 914.389 496.588 911 498C909.464 498.64 907.536 498.36 906 499C900.72 501.2 892.698 507.07 889 512C887.378 514.163 885.522 517.109 883 519C878.454 522.41 873.882 526.745 869 530C865.185 532.543 860.986 534.01 857 537C854.813 538.64 852.111 539.593 850 541C846.103 543.598 844.233 547.355 841 550C837.704 552.697 832.636 556.045 830 560C829.118 561.323 828.882 563.677 828 565C824.898 569.653 818.985 570.971 822 577C827.993 576.001 833.477 564.698 837 560C840.338 555.549 845.523 553.477 849 550C850.172 548.828 851.148 546.235 853 545C856.32 542.786 860.628 541.248 864 539C865.538 537.974 866.462 536.026 868 535C872.233 532.178 877.812 529.792 882 527C884.691 525.206 886.409 521.943 889 520C899.024 512.482 907.049 502.984 919 499C922.868 497.711 927.08 498.307 931 497C933.004 496.332 934.924 494.519 937 494C938.569 493.608 940.431 494.392 942 494C944.095 493.476 946.008 491.83 948 491C950.863 489.807 954.026 489.991 957 489C959.004 488.332 960.924 486.519 963 486C967.771 484.807 972.52 483.867 977 482C980.069 480.721 982.228 478.079 985 476C987.314 474.265 990.683 473.544 993 472C995.692 470.205 997.308 466.795 1000 465C1003.9 462.402 1007.98 459.528 1011 455C1013.11 451.838 1015.43 447.53 1017 444C1017.5 442.883 1016.53 441.13 1017 440C1017.79 438.095 1019.95 436.801 1021 435C1023.71 430.348 1026.67 425.434 1030 421C1033.05 416.937 1036.8 417.39 1035 412C1027.71 412 1026.5 420.251 1021 423C1021 417.968 1023.35 412.384 1022 407C1021.32 404.289 1019.86 401.58 1019 399C1017.84 395.518 1019.26 389.948 1020 387C1020.71 384.176 1019.29 380.824 1020 378C1020.51 375.944 1021.49 373.056 1022 371C1022.5 368.985 1022.1 366.8 1023 365C1024.64 361.715 1028.28 359.566 1024 357M849 466C845.056 466 845.593 464.867 844 462C843.152 460.473 840.668 459.604 840 458C839.117 455.882 841.347 455.469 842 454C842.942 451.881 843.659 447.635 843 445C841.656 439.624 838.111 435.067 836 430C832.954 422.689 830.005 414.866 826 408C822.29 401.639 815.174 403.239 812 408C809.652 406.239 808.509 402.018 807 399C806.257 397.514 804.327 396.019 805 394C807.777 385.668 819.547 382.516 827 385C835.086 387.695 838.395 397.748 841 404C842.766 408.237 846.234 411.761 848 416C849.193 418.863 849.009 422.026 850 425C852.246 431.737 854.76 440.958 853 448C852.373 450.51 853.627 453.49 853 456C852.132 459.47 850.123 462.63 849 466M100 417C98.5513 419.897 100.022 422.934 99 426C98.4228 427.732 96.9052 430.448 96 432C89.1727 443.704 77.004 452.992 71 465C69.0302 468.94 66.051 475.051 70 479C70.2915 479.292 73.48 479.827 74 480C76.0399 475.92 73.0111 470.773 75 466C77.0958 460.97 82.6168 457.511 86 453C91.1698 446.107 96.7996 439.681 100 432C102.289 426.507 105.933 422.899 102 417L100 417M789 418C791.663 421.995 795.394 428.426 794 434C793.148 437.408 790.926 440.705 792 445C793.635 451.539 798.182 455.272 802 461C803.927 463.891 804.12 468.18 806 471C807.276 472.914 809.109 473.995 810 476C810.481 477.083 809.436 478.965 810 480C811.143 482.095 812.31 481.437 814 482C818.637 483.546 821.408 481.776 823 477C827.526 477 828.414 480.431 830 484C830.517 485.164 832.363 486.547 832 488L830 490C828.767 492.158 827.562 495.505 825 497C821.08 499.287 814.229 499.41 810 498C809.157 497.719 807.79 498.395 807 498C803.288 496.144 802.119 490.825 800 488C797.282 484.376 792.275 481.9 790 478C787.939 474.467 787.033 469.66 785 466C784.445 465 782.238 464.357 782 464C781.415 463.123 782.34 461.02 782 460C780.908 456.723 781.192 455.234 782 452C783.336 446.658 780.804 440.38 782 435C782.198 434.111 783.708 432.877 784 432C785.815 426.555 783.602 421.239 789 418M810 467L808 467C805.877 463.816 804.867 460.2 803 457C802.013 455.309 799 453.4 800 451C801.518 447.356 806.018 444.398 808 441C809.603 438.252 810.397 434.748 812 432C814.928 426.98 819.749 422.876 823 418C824.083 418.181 826.418 418.185 827 419C827.686 419.961 827.409 422.114 828 423C830.081 426.121 834.328 430.343 832 435C830.811 437.378 827.482 438.777 826 441C824.906 442.642 824.225 445.366 823 447C821.32 449.24 818.68 450.76 817 453C813.814 457.249 812.936 462.596 810 467M279 420C277.947 422.107 278.739 423.783 278 426C277.708 426.877 276.198 428.111 276 429C274.69 434.894 274.705 447.951 281 449C281 441.612 280.406 435.132 281 428C281.286 424.565 281.615 421.569 279 420M382 446L380 446C378.064 443.096 375.45 438.85 376 435L378 433C378.819 431.035 377.48 428.08 378 426C378.374 424.502 379.288 422.425 380 421C383.092 421.515 383.425 422.637 385 425C385.885 426.327 387.664 427.49 388 429C388.7 432.149 386.997 433.606 386 436C384.525 439.541 384.22 442.671 382 446M365 423C371.81 426.405 370.1 434.199 373 440C375.222 444.443 379.765 447.529 382 452C383.222 454.443 380.085 457.372 379 459L377 459C374.275 454.913 369.268 450.535 367 446C366.463 444.927 367.489 443.099 367 442C366.623 441.153 365.196 439.88 365 439C364.435 436.458 365.429 433.572 365 431C364.517 428.105 362.983 425.017 365 423M267 438C267 440.359 266.106 444.854 267 447C270.776 456.063 283.362 466.121 292 469C292 464.18 289.434 462.576 286 460C283.76 458.32 282.24 455.68 280 454C274.46 449.845 269 445.34 269 438L267 438M390 438C393.352 443.027 400.394 446.042 404 451C408.498 457.185 407.684 464.266 406 471C404.889 475.446 403.294 481.118 398 482C398 479.174 397.114 474.658 398 472C398.71 469.87 401.471 466.941 400 464C397.069 458.138 389.52 454.047 387 448C386.196 446.071 387.652 444.392 388 443C388.661 440.354 388.101 439.424 390 438M368 453C370.274 455.274 374.215 458.356 373 462C372.341 463.978 369.621 466.724 370 469C370.13 469.777 371.827 471.223 372 472C372.936 476.214 374.693 479.079 376 483C374.517 483.989 372.662 485.446 371 486C368.122 486.959 365.556 484.075 364 482C360.093 476.791 362.557 466.771 364 461C364.913 457.347 364.785 454.929 368 453M388 455C389.909 456.909 395.75 461.85 394 465C392.767 467.22 388.857 467.936 387 470C385.568 471.591 381.328 479.513 378 478C374.567 476.439 374.263 470.605 376 468C377.727 465.41 380.381 463.428 382 461C383.757 458.365 386.05 456.463 388 455M94 456C91.3723 461.255 96.4749 463.425 98 468C98.8184 470.455 97.4761 473.096 97 475C96.647 476.412 97.643 478.714 97 480C95.224 483.552 91.9208 482.842 94 487C96.5754 486.142 99.1854 485.722 101 483C102.544 480.684 102 476.951 102 474C102 466.501 101.505 458.502 94 456M280 466C277.556 470.887 282.026 476.351 286 479C289.486 481.324 293.097 484.699 297 486C301.572 487.524 306.416 487.472 311 489C314.803 490.268 315.758 494.121 320 492C317.618 487.235 313.345 486.811 309 485C303.184 482.577 296.263 480.508 291 477C286.119 473.746 285.486 466.914 280 466M864 469C864.768 473.607 867.295 475.907 869 480C870.87 484.487 869.786 489.145 871 494C871.738 496.951 872.881 501.477 872 505C871.268 507.927 871.176 512.178 870 515C868.489 518.627 865.095 522.191 867 526C870.891 524.055 871.988 520.046 873 516C875.603 505.588 875.623 493.492 873 483C871.824 478.297 871.109 472.731 868 469C867.703 468.643 864.539 469 864 469M392 471C392 475.125 394.497 480.51 393 485C386.279 505.162 360.646 507 341 507C341.78 503.098 345.971 504.524 349 502C354.233 497.639 358.043 490.87 360 485C363.986 486.993 367.766 491.163 373 490C374.564 489.652 375.559 487.72 377 487C379.283 485.858 381.018 486.422 383 484C386.259 480.017 386.378 471.937 392 471M860 552C853.031 552 848.85 556.866 845 562C842.2 565.733 837.8 568.267 835 572C833.665 573.78 832.243 576.505 830 578C829.353 578.431 827.647 578.568 827 579C825.521 579.986 824.583 582.208 823 583C821.927 583.537 820.099 582.511 819 583C816.125 584.278 813.373 586.627 811 589C807.13 592.87 803.086 595.828 801 600C800.335 601.33 798.163 603.159 799 605C800.486 608.269 803.217 606.486 805 605C809.65 601.125 811.377 595.467 816 592C822.514 587.115 830.872 584.515 837 579C840.001 576.299 842.351 571.737 846 569C851.573 564.82 857.828 558.516 860 552M844 619C847.357 618.441 849.323 617.231 852 615C852 621.667 852 628.333 852 635C847.449 630.449 844.167 632.153 839 630C836.313 628.88 834.52 626.027 833 624C828.079 617.438 825.951 614.195 828 606C828.616 603.538 828.034 601.483 831 600C835.816 597.592 835.754 603.738 835 606C836.478 606.986 836.203 607 838 607C840.1 603.85 840.78 600.56 839 597L837 596C836.76 595.58 837.857 592.86 838 592C834.472 592.588 834.059 594.471 831 596C829.501 596.75 827.468 595.932 826 597C822.281 599.705 822 605.656 822 610C818.913 610 818.306 610.388 817 613C819.419 614.21 819.47 613.843 822 613C822 617.822 824.514 623.272 827 627C827.751 628.127 832 630.742 832 632C832 634.3 825.089 637.821 824 640C823.598 640.804 824.366 642.176 824 643C823.78 643.496 822 645.516 822 646C822 648.258 824.296 650.889 825 653C825.417 654.251 825.123 656.014 826 657C830.858 662.465 839.487 652.974 837 648C835.581 648.473 833.25 650.792 832 651C828.283 651.62 827.843 645.315 829 643C832.286 636.428 846.317 634.635 850 642C851.907 645.815 849.945 650.78 851 655C853.309 664.237 852 676.006 852 686C846.771 683.386 842.915 677.277 838 674C833.985 671.323 828.242 671.474 824 669C815.665 664.138 806.262 654.046 804 645C803.328 642.313 805.274 640.177 806 638C800.785 635.392 798.864 643.457 800 648C801.83 655.319 806.248 661.248 812 667C813.908 668.908 820.368 671.681 821 674C821.595 676.183 816.136 679.296 815 681C811.652 686.022 811.761 693.142 815 698C820.575 706.363 831.505 702.968 833 694C833.318 692.095 831.024 688.536 830 687C826.102 687.65 823 688.571 823 693C824.49 693.497 825.261 694 827 694C826.753 694.494 825.136 698.252 824 698C822.75 697.722 818.643 694.286 818 693C815.534 688.068 820.745 680.127 825 678C832.569 674.215 839.502 682.502 844 687C845.406 688.406 848.118 690.236 849 692C849.53 693.06 848.622 694.867 849 696C849.4 697.201 850.697 698.786 851 700C851.784 703.137 850.216 706.863 851 710C851.579 712.317 851.359 715.436 852 718C852.305 719.219 853.948 721.263 853 723C850.037 728.432 842.81 722.937 840 722C827.119 717.706 812.004 718.506 803 705C799.435 699.652 798 692.91 798 686C798 684.552 797.366 681.267 798 680C799.741 676.518 802 676.335 802 672C794.227 672 795.35 679.601 794 685C793.535 686.861 792.464 688.589 793 691C793.262 692.18 794.611 693.834 795 695C795.4 696.2 794.6 697.8 795 699C795.522 700.567 797.327 701.487 798 703C798.951 705.141 798.68 708.02 800 710C802.327 713.491 805.989 715.244 809 717C815.43 720.751 821.061 724 829 724L829 725C811.347 725 794.228 724 777 724C777 701.514 776 678.947 776 656C771.587 656.883 771 665.439 771 670C771 679.994 772.309 691.763 770 701C769.257 703.972 771.17 708.193 770 711L768 713C766.812 715.772 765.075 720.207 762 722C758.079 724.287 752.961 723.232 752 729C755.128 730.564 759.255 730 763 730C770.333 730 777.667 730 785 730C805.667 730 826.333 730 847 730C856.306 730 868.569 731.81 877 729C876.005 723.029 871.726 726.484 868 724C863.828 721.219 860.068 716.27 859 712C858.198 708.792 859 704.322 859 701C859 693 859 685 859 677C859 653.593 858 631.436 858 608C858 599 858 590 858 581C858 578.928 859.102 572.652 858 571C856.981 569.471 854.019 569.471 853 571C851.567 573.149 853 581.305 853 584C853 592.09 852.408 602.184 849 609C846.834 613.332 841.46 613.921 844 619M745 656C753.785 660.393 759.396 647.403 766 643C782.132 632.245 802.441 624.339 814 607C816.698 602.952 820.193 599.84 821 595C816.721 595 813.775 596.005 812 600C811.458 601.219 811.762 602.858 811 604C808.741 607.388 805.427 611.43 802 614C797.51 617.368 792.048 622.055 787 625C782.01 627.911 775.974 629.099 771 632C766.607 634.563 763.151 637.887 759 641C753.52 645.11 747.093 649.721 745 656M767 690C767 687.282 767.656 683.624 767 681C766.401 678.602 764.764 676.293 764 674C762.744 670.231 765.194 662.709 767 660C771.837 652.744 786 645.069 786 636C780.963 636 777.481 641.519 774 645C762.829 656.171 754.472 667.945 762 683C763.696 686.393 763.31 688.77 767 690M798 735C798 739.615 800.424 741.218 802 745C805.681 753.835 810.453 773.273 799 779C798.224 774.342 791.214 765.274 787 773C786.577 773.775 787 776.095 787 777C787 785.686 798.422 789.784 805 785C809.037 782.064 808.93 777.282 810 773C810.364 771.544 811.636 769.456 812 768C812.538 765.848 811.403 764.613 811 763C809.332 756.327 809.024 751.048 806 745C804.042 741.084 803.081 735 798 735z"/>
</svg>
