<?xml version="1.0" standalone="yes"?>
<svg width="2520" height="564">
<path style="fill:#ffffff; stroke:none;" d="M1.02778 1.02777C-2.97475 5.03027 0 23.4175 0 29C0 56.3333 0 83.6667 0 111C0 220.667 0 330.333 0 440C0 471 0 502 0 533C0 540.667 -0.0158074 548.333 0 556C0.00445072 558.159 -0.639759 562.087 1.6034 563.397C4.40568 565.033 9.86411 564 13 564C22.3333 564 31.6667 564 41 564C76 564 111 564 146 564C274 564 402 564 530 564C1002.33 564 1474.67 564 1947 564C2089.67 564 2232.33 564 2375 564C2410.67 564 2446.33 564 2482 564C2491 564 2500 564 2509 564C2511.58 564 2516.96 564.987 2518.97 562.972C2522.97 558.97 2520 540.583 2520 535C2520 507.667 2520 480.333 2520 453C2520 343.333 2520 233.667 2520 124C2520 93 2520 62 2520 31C2520 23.3334 2520.02 15.6666 2520 8C2520 5.84113 2520.64 1.91357 2518.4 0.603394C2515.59 -1.03326 2510.14 0 2507 0C2497.67 0 2488.33 0 2479 0C2444 0 2409 0 2374 0C2246 0 2118 0 1990 0C1517.67 0 1045.33 0 573 0C430.333 0 287.667 0 145 0C109.333 0 73.6667 0 38 0C29 0 20 0 11 0C8.42149 0 3.04244 -0.986877 1.02778 1.02777z"/>
<path style="fill:#000000; stroke:none;" d="M129 19.4244C104.225 22.6774 78.9907 24.5481 54 22.1697C49.6518 21.7559 31.6449 20.8093 29.6265 26.1543C28.1658 30.0225 45.6349 38.1031 48 39.8326C65.66 52.7469 82.9005 70.0503 93.5756 89C97.1929 95.4211 97.5722 102.771 100.923 109C117.435 139.699 130.752 171.184 144.367 203C146.791 208.665 151.216 213.242 153.522 219C157.545 229.048 159.484 240.021 163.63 250C171.373 268.638 183.398 285.452 191.211 304C196.849 317.385 195.844 332.109 202.208 345C213.313 367.497 228.246 387.741 239.481 410C242.489 415.959 243.113 422.841 245.606 429C250.02 439.906 255.822 450.158 260.333 461C264.366 470.693 268.634 480.222 272.45 490C273.508 492.712 274.793 498.316 278.875 497.248C282.984 496.173 288.873 478.25 290.603 474C300.993 448.483 306.004 420.546 313.573 394C315.742 386.391 317.099 378.591 319.296 371C319.799 369.262 322.412 364.663 320.292 363.238C318.068 361.741 315.025 364.383 314.214 366.275C311.354 372.937 309.951 380.127 307.78 387C300.601 409.729 295.772 433.896 287 456C285.235 460.448 282.926 476.191 277.401 477.218C274.557 477.746 271.844 471.951 270.823 470C266.572 461.878 264.27 452.877 259.471 445C252.497 433.555 250.189 422.322 245.76 410C242.306 400.391 236.823 391.621 233.228 382C228.736 369.98 226.184 357.572 220.51 346C216.754 338.341 214.557 330.244 212.526 322C211.841 319.219 210.184 315.009 213.322 313.067C217.168 310.686 226.572 313.551 228.86 317.144C238.314 331.986 239.888 352.273 263 351.852C269.279 351.737 271.748 346.047 273.799 341C278.459 329.538 284.197 318.148 286.956 306C288.387 299.697 286.429 293.196 285.2 287C284.058 281.245 284.286 274.484 281.574 269.17C271.219 248.881 249.458 239.373 233.093 224.671C228.258 220.327 219.553 211.102 217.533 205C216.951 203.241 215.066 197.513 217.042 196.117C219.306 194.517 224.408 199.765 226 200.965C234.555 207.407 243.236 211.538 251.999 217.336C264.38 225.526 281.09 237.057 289.957 249.039C304.814 269.118 304.656 296.654 296.819 319C291.445 334.326 285.86 350.38 275.413 363C270.411 369.041 265.568 374.405 257 373.832C242.504 372.862 240.152 365.995 236.566 354.059C235.928 351.933 233.855 349.566 231.458 351.086C222.77 356.595 237.314 370.376 238.893 375.015C240.177 378.79 238.05 383.144 240.951 386.534C243.46 389.467 244.604 382.986 246.317 381.928C247.937 380.928 259.564 380.601 261.347 381.597C263.189 382.626 263.656 390.776 264.548 393C268.587 403.068 276.029 413.076 280.738 422.771C281.748 424.848 284.427 426.276 286.361 424.353C289.393 421.337 285.689 414.952 284.243 412C280.386 404.122 268.214 392.563 271.607 383C272.809 379.613 278.829 370.862 282.08 369.188C284.378 368.005 286.462 372.58 288.977 369.392C293.752 363.339 291.986 349.578 296.12 342.019C298.583 337.517 304.852 338.915 306.357 335.643C309.095 329.692 302.73 315.008 307.919 309.921C309.134 308.73 314.458 331.975 319.397 320.848C324.892 308.467 309.979 298.714 308.501 287C308.239 284.923 304.949 275.664 307.689 274.6C313.111 272.495 319.443 290.545 321.028 294C323.418 299.21 333.673 312.495 331.682 317.872C329.647 323.367 323.327 315.824 322.485 320.323C321.89 323.498 324.756 339.15 328.954 337.628C335.956 335.089 340.472 315.568 342.501 309C351.568 279.641 362.552 250.654 370.909 221C373.304 212.503 376.191 202.779 376.999 194C377.215 191.655 378.926 186.173 375.718 185.181C368.094 182.821 364.699 200.319 364.086 205C362.669 215.807 356.559 226.639 353.09 237C348.67 250.205 346.471 263.655 342.729 277C340.955 283.329 338.937 289.628 337.331 296C336.899 297.714 336.509 301.944 333.985 301.944C331.57 301.944 330.116 297.729 329.309 296C325.926 288.743 322.883 281.353 319.719 274C308.462 247.835 291.718 222.757 282.303 196C281.151 192.726 281.932 189.295 280.644 186C274.157 169.395 262.71 155.473 254.181 140C239.59 113.528 225.925 84.1475 214.969 56C210.181 43.6994 219.427 39.059 229 33.8943C232.324 32.1008 238.703 28.6166 234.663 24.4144C228.709 18.2222 213.807 22.089 206 21.9962C180.657 21.6948 154.344 16.0967 129 19.4244M775.17 20.7546C773.895 21.0251 766.434 21.8588 767.346 23.5787C768.897 26.5054 777.084 27.7723 779.999 28.9537C784.763 30.8844 787.895 35.3768 789.836 40C795.922 54.49 793.516 76.6483 793.164 92C792.962 100.824 795.283 109.352 795.726 118C796.403 131.217 794.818 145.724 794.13 159C791.162 216.331 791.254 273.524 790.999 331C790.86 362.435 788.415 393.681 791.54 425C792.673 436.358 794.52 458.747 789.392 469C787.199 473.384 772.213 481.686 775.712 486.566C779.842 492.326 795.138 488.296 801 488.039C819.063 487.248 836.905 488 855 488C862.232 488 871.907 489.695 878.867 487.682C883.303 486.399 882.354 482.097 879.837 479.424C874.135 473.372 863.838 469.173 864.245 460C866.06 419.128 861.351 377.791 865.17 337C867.867 308.188 866.244 278.049 866.018 249C865.894 233.085 869.263 216.857 868.871 201C867.987 165.212 865.907 129.682 865.633 94C865.582 87.3199 867.267 80.6573 866.865 74C866.185 62.7551 862.098 53.1563 867.471 42C869.427 37.9374 886.592 27.7083 883.863 23.6127C881.732 20.4131 862.083 20.0215 858 20.0502C839.583 20.1793 821.436 20.9116 803 20.9992C794.296 21.0406 783.631 18.9585 775.17 20.7546M930.229 22.3171C928.155 23.2587 926.772 26.1908 928.644 27.9907C936.041 35.1051 946.005 35.1617 946.911 48C949.311 82.0327 952.071 117.942 948.83 152C940.77 236.691 946.426 321.232 942.196 406C941.139 427.185 942.111 451.239 938.076 471.999C937.043 477.318 922.124 483.54 925.137 488.397C927.93 492.902 942.698 489.211 947 488.884C962.839 487.682 979.182 487.704 995 488.015C1001.98 488.153 1011.15 490.335 1017.85 487.397C1020.91 486.055 1020.88 483.024 1018.68 480.9C1015.36 477.706 1010.32 476.167 1008.03 471.91C1005.35 466.941 1007.33 459.296 1007.83 454C1008.79 443.751 1006.34 433.222 1009.05 423C1010.83 416.319 1016.47 411.184 1020.75 406C1028.88 396.164 1036.54 385.804 1045.2 376.424C1047.21 374.249 1059.17 363.917 1056.25 361.043C1050.59 355.467 1043.44 371.925 1039.94 369.793C1038.42 368.868 1038.91 364.508 1038.71 363C1037.76 355.922 1034.32 349.145 1026 350.229C1024.3 350.452 1018.54 352.598 1021.09 355.296C1024.38 358.789 1029.99 352.005 1033.11 360.005C1041.39 381.262 1011.03 401.114 1003.08 418C998.8 427.104 1002.12 438.092 998.585 447.83C996.878 452.532 995.083 459.464 990.815 462.474C989.133 463.659 982.429 462.96 983.06 466.008C985.396 477.287 999.505 460.751 1000.16 461.207C1002.85 463.09 1001.53 479.26 999.397 481.397C995.898 484.896 984.532 483.249 980 482.715C967.682 481.261 952.389 479.216 954.187 462C954.506 458.945 956.806 456.996 957.522 454.164C958.17 451.602 955.67 451.796 953.981 452.426C940.489 457.456 954.768 472.448 955.187 480.682C955.356 484.012 948.202 483.324 946.318 482.397C941.926 480.236 943.858 467.148 944.039 463C944.884 443.715 947.774 424.285 947.996 405C948.366 372.835 951.114 339.173 948.911 307C948.1 295.158 949 283.834 949 272C949 267.786 947.589 260.478 949.471 256.636C949.774 256.016 961.404 270.292 962.94 261.826C963.402 259.281 954.156 250.88 952.838 247C947.068 230.019 950.842 216.432 960.965 202C963.132 198.911 966.37 191.494 970.104 190.207C973.226 189.131 979.858 199.584 978.836 202.255C974.796 212.821 961.857 220.191 961.314 233C960.9 242.755 971.795 251.354 973.594 261C975.539 271.427 963.546 283.105 958.314 291C954.115 297.335 948.164 314.071 954.434 320.602C958.178 324.502 969.451 321.764 966.744 315.419C963.704 308.295 960.588 317.739 959.117 317.369C953.247 315.894 960.189 300.865 961.428 298C965.025 289.684 971.545 283.13 975.515 275.001C976.426 273.134 978.39 267.497 981.2 270.466C986.291 275.845 985.45 288.29 985.024 295C983.476 319.37 967.881 340.954 964.428 365C962.521 378.284 966.98 391.864 964.789 405C963.161 414.755 963.116 424.185 955.819 431.715C954.42 433.158 949.417 436.689 951.752 439.15C954.299 441.834 959.003 437.154 960.582 435.409C966.031 429.387 967.332 420.706 968.09 413.002C968.157 412.326 968.711 407.06 970.344 408.207C972.114 409.45 972.687 414.069 973.45 416C977.403 426.003 979.501 436.4 976.204 447C975.646 448.794 970.392 457.918 975.969 457.079C984.395 455.81 984.382 434.913 983.575 429C980.731 408.164 969.896 390.656 970.001 369C970.031 362.796 971.021 351.581 975.245 346.636C977.722 343.735 978.571 353.872 978.718 355C980.255 366.787 985.215 378.302 985.634 390C985.71 392.105 984.948 402.642 987.326 403.369C992.039 404.811 988.384 387.967 992.573 387.388C1000.34 386.316 1012.66 392.887 1016.34 380.985C1017.26 378.023 1015.69 369.314 1010.66 371.712C1008.65 372.667 1011.37 378.441 1009.51 380.721C1002.77 388.986 990.873 378.876 988.147 372C983.246 359.635 981.183 339.108 983.325 326C985.574 312.235 991.822 300.43 990.536 286C989.702 276.635 986.919 269.078 982.204 261C980.673 258.376 975.136 250.691 975.765 247.728C976.489 244.319 993.489 242.996 996.892 239.786C1001.5 235.438 1003.38 228.14 1003.91 222C1004.16 219.157 1003.93 213.652 1007.17 212.207C1010.5 210.716 1010.02 219.535 1009.96 221C1009.53 231.399 1011.98 241.519 1010.42 252C1010.18 253.582 1010.21 257.701 1008.11 258.13C1006.45 258.468 999.657 253.158 998.921 256.579C998.427 258.877 1002.18 261.498 1003.37 263.09C1005.91 266.508 1007.37 270.784 1007.83 275C1008.38 280.172 1008.66 291.018 1006.74 295.782C1005.72 298.319 1003 299.246 1002.3 302.069C1000.68 308.607 1003.49 315.427 1002.71 322C1001.92 328.717 999.92 334.922 997.015 341C996.192 342.721 994.231 346.14 996 347.914C999.699 351.624 1002.98 337.175 1004.7 336.207C1007.73 334.498 1006.35 346.531 1010.54 344.079C1020.42 338.301 1028 324.458 1035.38 315.91C1036.02 315.168 1042.65 304.981 1038.01 305.921C1027.75 308 1025.04 328.103 1014.32 330.883C1011.45 331.627 1012.03 326.597 1011.91 325C1011.43 318.552 1012 312.463 1012 306C1012.01 279.24 1015.19 252.746 1015 226C1014.79 196.259 1017.94 166.631 1017.99 137C1018.03 112.969 1015.54 88.9756 1016.01 65C1016.15 58.0018 1014.67 45.1332 1018.56 39.1705C1020.79 35.7623 1036.04 27.4745 1033.66 22.7878C1032.87 21.2321 1029.28 22.3333 1028 22.4375C1021.83 22.9418 1016.28 25 1010 25C992.262 25 973.595 25.4836 956 24.1813C949.515 23.7013 936.111 19.6476 930.229 22.3171M434 24.7106C424.618 24.7908 415.382 25.1332 406 25.0185C403.308 24.9856 397.831 24.7231 395.832 26.9491C394.984 27.8923 403.547 43.3671 403.985 47C406.383 66.9068 398.356 82.9364 394.21 102C391.353 115.139 386.25 127.893 383.74 141C383.368 142.943 380.013 153.793 384.248 153.793C387.968 153.793 389.339 146.54 390.209 144.015C393.443 134.633 398.894 125.63 402.162 116C409.036 95.7422 412.762 71.6573 425.568 54.0146C430.374 47.393 437.619 41.4036 443.834 36.1312C445.625 34.6116 450.812 31.6282 450.794 28.9807C450.763 24.4315 437.142 24.6838 434 24.7106z"/>
<path style="fill:#ffffff; stroke:none;" d="M129 26.4244C115.957 28.142 103.118 29.669 90 29.9854C86.0125 30.0815 78.4983 28.7477 75.733 32.5139C73.5845 35.44 76.9929 40.2512 78.159 43C82.0463 52.1642 86.835 58.5023 92.1019 67C93.6278 69.4621 96.2265 76.6808 99.7176 76.8079C102.265 76.9006 105.304 71.8316 106.328 69.9606C110.28 62.7377 112.962 52.4216 104.895 46.8935C101.9 44.8412 97.7352 44.3953 94.6304 46.4321C93.5772 47.123 91.0735 50.7116 89.6127 49.8974C84.8966 47.2687 98.5151 40.9961 100.83 40.9822C107.876 40.9402 109.118 50.0237 115.09 51.0062C121.159 52.0046 128.788 41.2445 134.562 45.7855C137.947 48.4474 136.116 54.0078 132.904 55.9792C129.563 58.0292 133.46 50.902 130.663 49.6436C127.115 48.0474 121.826 51.3674 119.019 53.2469C112.337 57.7199 113.975 63.0818 111.571 69.5563C108.579 77.6136 99.4077 79.314 103.426 90C104.388 92.5593 106.135 100.697 109.274 101.369C111.619 101.871 112.58 97.4718 113.154 95.9992C114.853 91.6414 117.144 86.7943 116.775 82C116.611 79.8727 113.692 74.8129 115.083 73.0062C117.865 69.3936 120.251 80.6372 123.924 78.2485C126.774 76.3955 128.712 72.469 131.043 70C137.581 63.0767 148.416 55.8227 150.606 46C151.853 40.4099 143.759 34.0704 143.056 35.0394C149.65 25.9454 154.356 41.1884 157.564 42.1365C160.838 43.1042 164.209 39.4766 167.704 40.6497C169.389 41.2155 169.085 42.5744 167.704 43.2809C156.15 49.1892 148.886 56.8459 139.001 65.8302C126.961 76.7723 115.196 93.1821 114.054 110C113.413 119.442 118.514 125.658 121.872 134C130.09 154.416 137.575 169.156 157 181.544C164.599 186.39 179.381 202.391 189.772 199.264C197.329 196.989 191.281 177.162 186.941 174.001C162.84 156.444 113.436 125.358 132.1 88C134.905 82.3857 139.764 76.066 144.146 71.5803C168.385 46.7635 192.505 75.9594 197.772 101C198.587 104.873 208.824 119.286 213.972 115.758C216.691 113.895 214.157 105.674 214.039 103C213.609 93.1894 210.438 69.1621 199.871 64.5995C196.673 63.2186 178.503 61.1606 178.724 57.4776C178.971 53.3591 181.464 45.9125 183.132 42.0231C183.374 41.4579 185.354 37.3004 186.502 38.4969C188.802 40.8931 184.85 48.8663 188.318 52.787C190.528 55.2861 205.981 64.0991 208.353 59.3928C211.146 53.8531 201.73 43.0333 198.914 39C197.08 36.3743 195.994 31.2452 193.412 29.4337C189.2 26.4783 179.018 27.025 174 27.0008C159.11 26.929 143.889 24.4637 129 26.4244M852.09 26.5093C850.563 26.8007 847.055 27.1381 847.167 29.3418C847.362 33.2019 852.281 37.0742 853.437 41C854.953 46.1518 852.865 50.8412 853.098 55.9769C853.25 59.3317 859.197 61.0032 854.848 63.2832C850.723 65.446 849.108 60.0917 849.214 57C849.378 52.2103 852.074 46.714 850.393 42C846.053 29.834 829.706 24.0576 818.04 28.7423C811.338 31.4337 801.961 52.9122 812.058 56.1991C819.083 58.4858 817.145 48.4846 820.379 48.4846C823.358 48.4846 823.871 52.9691 823.214 55C821.226 61.1436 815.518 60.2074 811.742 63.8572C808.882 66.6209 810.354 74.1153 805.524 75.2176C802 76.0217 805.482 64.339 805.66 63C806.465 56.9222 802.589 51.2744 803.507 45C804.166 40.4947 809.014 34.1095 807.941 29.6034C807.399 27.3296 802.831 27.861 801.318 28.6034C795.834 31.2928 798.871 44.3305 798.985 49C799.459 68.3484 796.456 91.3744 805.966 109C808.069 112.898 815.608 129.13 820.91 127.654C825.721 126.315 826.548 119.636 824.414 116C815.497 100.802 806.575 85.8789 819.418 70.054C824.079 64.3111 830.397 60.4789 834.446 53.9854C837.155 49.6411 837.761 42.0614 831.941 39.7469C828.03 38.1917 823.672 42.6208 820.427 40.8325C816.889 38.8832 822.248 34.4861 824.015 33.6072C827.996 31.6277 832.854 34.2167 835.606 37.2137C839.266 41.1978 841.807 49.6215 840.873 55C840.341 58.0647 836.864 61.4684 837.748 64.625C839.352 70.359 849 71.6636 851.821 77.0401C853.165 79.6011 850.41 92.981 855.459 91.2485C859.419 89.8896 859.96 78.4289 860.424 75C861.899 64.0943 860.065 52.9208 861.421 42C861.865 38.4253 863.373 30.6555 860.971 27.6034C859.08 25.2005 854.65 26.0208 852.09 26.5093M1005 28.5417C998.092 29.5485 1003.15 36.9907 1004.25 41C1005.91 46.9902 1003.46 52.1012 1004.21 58C1004.89 63.2385 1008.01 67.8216 1008.79 73C1009.14 75.3653 1009.89 85.9444 1005.72 85.9444C1004.08 85.9444 1004.94 80.8958 1004.96 80C1005.12 74.4806 1003.16 63.8984 999.822 59.4082C996.58 55.0466 986.181 60.7792 985.176 51.9892C984.895 49.5341 987.164 46.6035 989.814 47.0602C993.304 47.6616 991.001 53.9767 995.965 52.338C1006.97 48.7041 997.233 31.9171 990 29.8912C975.243 25.7579 961.519 35.1234 964.225 51C964.867 54.7708 970.08 58.5263 969.959 61.8565C969.915 63.065 959.959 71.3192 959.092 70.7932C956.964 69.5026 960.663 62.884 960.853 61C961.701 52.5883 958.373 45.6111 960.765 37.0008C961.293 35.1031 962.926 31.9059 960.578 30.6042C952.978 26.3912 952.589 37.6805 952.375 42C951.695 55.7381 953.912 69.2606 954.001 83C954.022 86.3377 953.662 95.0489 957.508 96.6937C963.348 99.1903 962.525 82.1708 964.638 79.0008C967.022 75.4237 969.803 72.6796 974.015 71.5988C975.682 71.1708 981.745 71.38 982.658 69.9367C983.812 68.1135 978.227 63.2685 977.24 61.9854C971.968 55.1324 967.771 45.5309 973.684 38.0185C975.81 35.3187 979.144 31.8743 982.944 33.368C984.312 33.9055 987.952 37.0449 986.262 38.8133C985.581 39.5256 981.355 37.1251 979.961 37.3765C972.616 38.7011 972.829 46.7006 975.108 52C980.555 64.6644 998.866 71.218 1001.72 85.0008C1003.32 92.7213 999.392 99.0927 996.823 106C995.69 109.047 984.17 127.501 993.17 127.654C997.719 127.732 1001.17 116.235 1003.25 113C1015.56 93.8073 1014.43 72.7626 1011.58 51C1010.9 45.8265 1013.63 27.2847 1005 28.5417z"/>
<path style="fill:#000000; stroke:none;" d="M386.938 88.9553C379.627 89.2251 371.532 96.9611 368.438 103C367.555 104.724 364.687 111.609 368.203 112.369C370.584 112.884 372.45 108.444 373.553 106.999C377.808 101.427 384.043 99.2746 388.547 94.5023C390.487 92.4468 390.503 88.8237 386.938 88.9553z"/>
<path style="fill:#ffffff; stroke:none;" d="M832 90.4398C827.612 91.1025 813.834 98.8598 823.093 104.249C825.283 105.524 829.119 101.328 831 100.496C836.171 98.2096 840.938 101.646 843.532 106.015C850.581 117.886 853.714 126.186 853.093 140C852.988 142.344 853.172 147.793 856.668 147.793C863.052 147.793 861.372 130.622 861.455 127C861.819 111.057 852.478 87.3468 832 90.4398M975.17 91.0278C962.375 98.0742 957.716 115.599 956.304 129C956.069 131.232 957.273 146.275 961.161 144.654C964.82 143.129 961.451 128.694 964.101 124C967.812 117.429 973.076 107.357 980.015 103.896C983.766 102.024 991.675 105.818 993.566 103.377C1000.51 94.4197 981.578 87.4984 975.17 91.0278z"/>
<path style="fill:#000000; stroke:none;" d="M416.711 97.4143C414.285 98.6886 421.526 106.737 421.848 109.001C423.048 117.43 417.406 128.896 413.367 136C408.118 145.231 397.084 158.137 387.996 163.648C370.112 174.494 351.339 175.173 341.402 196C335.734 207.88 337.953 217.904 340.142 230C340.473 231.827 343.027 242.516 346.408 240.654C348.931 239.265 345.195 231.075 344.839 229C343.284 219.953 344.101 207.084 348.684 199C358.574 181.557 379.941 176.793 395.985 167.123C405.457 161.414 416.204 147.201 420.573 137C424.405 128.052 431.221 115.762 426.941 106.001C425.752 103.288 420.806 95.2645 416.711 97.4143z"/>
<path style="fill:#ffffff; stroke:none;" d="M177 100.484C161.101 102.461 134.205 137.97 160.057 145.674C162.287 146.338 162.683 143.51 162.981 141.98C164.166 135.915 166.131 130.986 172.015 128.046C189.921 119.099 204.467 131.705 217.91 143.376C232.116 155.708 243.598 172.229 246.561 191C247.364 196.085 245.557 201.153 246.133 205.907C246.544 209.289 253.329 214.048 256.683 213.748C259.9 213.46 259.925 206.297 259.921 204C259.907 194.574 257.52 180.676 253.806 172C248.458 159.51 242.37 142.97 232.816 133.104C223.904 123.902 209.313 117.576 198.329 111.197C191.053 106.972 187.165 99.2197 177 100.484M977.501 113.461C962.857 118.261 978.752 139.308 983.634 145.999C985.367 148.374 989.107 153.347 992.62 151.824C995.086 150.755 996.86 146.708 996.303 144.17C995.555 140.759 991.757 137.912 989.955 134.999C987.271 130.661 986.397 125.574 984.215 121C983.235 118.946 980.688 112.417 977.501 113.461M839.042 114.346C830.262 116.68 825.948 130.847 822.552 137.432C821.241 139.976 817.917 140.566 816.461 143.143C814.859 145.978 814.969 153.495 820.011 152.248C824.597 151.115 824.613 145.298 826.738 142.015C831.513 134.641 840.392 129.539 844.508 121.576C846.212 118.277 842.93 113.312 839.042 114.346M1005.56 119.176C1002.66 120.586 1001.12 125.049 1001.69 128C1002.68 133.109 1006.33 137.517 1004.4 143C1002.13 149.451 995.362 157.421 991.05 162.776C989.6 164.577 986.39 165.927 985.827 168.274C985.138 171.145 989.074 179.16 992.681 177.994C1007.94 173.06 1012.72 149.473 1012.98 136C1013.05 132.809 1012.14 115.98 1005.56 119.176M807.27 125.176C792.5 132.325 803.389 160.311 809.471 168.995C811.329 171.65 818.018 182.011 821.915 180.079C826.242 177.934 826.398 171.724 824.543 168C820.418 159.717 810.699 155.278 808.049 146.004C806.183 139.476 811.069 137.065 811.621 131.001C811.823 128.781 810.515 123.605 807.27 125.176z"/>
<path style="fill:#000000; stroke:none;" d="M668.137 134.029C666.657 135.572 667.741 137.885 665.723 139.471C655.238 147.708 635.417 143.999 623 144C594.482 144.002 565.568 143.827 537 143.999C525.005 144.072 517.152 146.105 505.91 141.749C503.647 140.872 498.066 138.594 496.029 140.774C494.021 142.921 495.555 147.482 495.844 150C496.632 156.865 497.646 164.135 497.961 171C498.051 172.974 497.117 178.595 499.564 179.539C502.552 180.69 507.194 173.642 510.001 172.603C517.506 169.826 529.963 172 538 172C571.959 172 605.842 172 640 172C646.822 172 655.362 170.619 661.985 172.318C665.024 173.097 668.416 178.629 671.581 177.503C674.787 176.362 673.91 170.555 674.089 168C674.797 157.922 674.896 148.135 673.941 138.044C673.721 135.711 670.946 131.098 668.137 134.029z"/>
<path style="fill:#ffffff; stroke:none;" d="M196.654 138.576C194.608 138.972 195.043 143.602 195.029 145.039C194.956 152.345 195.361 160.774 196.449 168C198.817 183.723 201.822 201.086 202.115 217C202.316 227.916 199.914 238.061 202.35 249C203.54 254.348 202.265 274.727 212.683 273.079C215.31 272.663 215.313 267.954 215.574 266C216.752 257.187 212.056 249.613 212.001 241C211.903 225.72 209.483 209.997 209.765 195C210.042 180.204 214.123 162.652 212.257 148.108C211.84 144.86 199.752 137.977 196.654 138.576M839.028 139.89C833.484 141.266 833.167 147.687 834.697 152C838.367 162.346 849.808 169.066 853.535 179C855.61 184.53 851.079 187.605 850.241 192.424C849.825 194.814 852.272 197.771 854.816 197.369C859.661 196.603 860.69 185.72 860.821 182C861.368 166.509 859.313 160.712 849.181 149C846.733 146.169 843.716 138.727 839.028 139.89M973.931 140.176C970.443 140.809 967.488 145.45 965.45 148.001C957.029 158.539 955.792 167.111 954.911 180C954.754 182.294 953.115 196.793 957.39 196.793C960.317 196.793 963.354 189.322 963.333 187C963.275 180.799 959.815 176.541 962.564 170.015C965.887 162.124 975.461 157.432 978.396 149C979.376 146.184 978.107 139.418 973.931 140.176M663.941 145.742C661.598 146.277 646.045 148.651 645.345 150.028C644.317 152.05 648.271 155.581 649.425 156.83C653.977 161.757 657.888 168.29 665.682 165.682C669.786 164.309 670.203 144.314 663.941 145.742M534 148.424C530.857 148.832 525.403 147.992 522.662 149.56C519.079 151.61 527.605 154.54 529 154.562C532.013 154.611 538.46 150.191 540.893 151.826C543.642 153.674 537.613 157.799 539.172 160.297C541.302 163.71 560.036 163.971 563.623 162.686C567.72 161.219 558.262 155.423 557 154.57C550.684 150.305 541.601 147.439 534 148.424M611.001 149.429C597.22 151.512 617.357 158.982 624.995 155.7C626.101 155.224 628.77 153.687 629.539 155.524C631.859 161.07 619.207 160.401 619.207 163.451C619.207 165.699 623.497 166.146 625.001 166.38C630.951 167.308 639.902 167.916 645.627 165.686C650.357 163.843 639.68 154.823 638 153.529C630.582 147.817 619.944 148.077 611.001 149.429M564.346 150.799C563.311 152.125 567.442 153.086 568.02 153.271C570.327 154.007 582.471 154.202 582.963 154.823C585.457 157.969 576.946 160.295 578.346 163.451C579.949 167.067 596.468 165.024 599.999 164.999C601.326 164.99 604.867 165.479 605.654 163.987C606.853 161.715 600.324 156.714 598.83 155.554C591.27 149.683 582.009 149.999 573 150C571.133 150 565.666 149.108 564.346 150.799M507.024 154.032C505.359 155.612 503.474 166.274 505.773 167.596C507.708 168.71 520.605 165.224 522.288 163.686C525.757 160.516 510.859 150.391 507.024 154.032M974.149 164.346C970.06 165.601 970.222 170.87 971.328 174C974.452 182.839 978.735 190.133 983.706 198C985.51 200.855 988.666 206.466 992.891 204.824C995.861 203.67 997.609 199.197 996.381 196.299C995.234 193.59 991.67 192.508 990.089 189.942C986.631 184.326 985.918 177.84 982.079 172C980.529 169.643 977.885 163.199 974.149 164.346M839.108 170.631C835.417 171.182 835.704 176.114 833.988 178.455C830.191 183.636 821.918 187.371 819.136 193.325C817.948 195.867 820.037 200.793 823.181 200.793C825.357 200.793 827.039 198.628 828.077 196.98C832.366 190.17 840.282 185.409 843.932 178.896C845.717 175.711 843.366 169.996 839.108 170.631M806.709 176.256C803.675 177.866 802.198 189.846 802.044 193C801.212 210.03 820.542 233.587 837.772 220.031C839.369 218.774 842.066 215.226 839.381 213.604C836.232 211.702 831.538 214.03 828 212.519C815.213 207.06 810.248 193.659 810.656 181.015C810.718 179.097 809.636 174.703 806.709 176.256M1004.09 177.176C1001.84 178.082 1000.53 180.668 1000.73 183C1001.47 192.021 1003.05 197.025 998.201 206C995.635 210.746 991.018 217.552 985.039 218.063C981.331 218.38 977.982 214.343 974.477 217.6C967.744 223.859 983.359 228.885 987.999 227.486C999.864 223.911 1007.92 200.828 1010.24 190C1010.97 186.55 1010.35 174.653 1004.09 177.176M157.027 189.161C154.759 190.827 155.399 197.682 155.904 200C158.201 210.545 160.89 221.034 164.989 231C169.695 242.44 175.459 253.523 179.938 265C184.691 277.18 188.389 291.087 199 299.521C204.815 304.143 210.61 302.693 217 305.341C229.142 310.373 240.944 317.123 252.775 306.57C262.293 298.081 260.736 271.75 261.83 260C262.229 255.724 260.167 246.373 253.603 247.906C250.508 248.629 252.011 260.515 251.999 263C251.919 279.723 247.881 300.603 227 290.586C209.391 282.138 196.973 268.985 186.456 253C183.215 248.074 178.629 243.69 176.695 238C172.36 225.242 173.908 211.978 171.852 199.005C171.283 195.416 160.712 186.456 157.027 189.161M839.032 196.117C836.062 198.719 841.432 203.79 842.46 206.039C846.47 214.814 854.256 221.26 852.377 232C850.32 243.761 834.122 244.417 825 245.271C822.957 245.462 817.579 244.522 816.117 246.067C811.697 250.74 819.147 268.941 807.074 269.137C805.644 269.16 803.946 268.132 804.917 266.574C806.341 264.29 809.132 263.68 810.258 260.945C814.726 250.089 807.102 241.732 805.512 232C805.156 229.827 808.716 215.629 801.429 219.176C796.427 221.61 796.9 241.997 797.015 247C797.555 270.605 796.998 294.272 797 318C797 323.308 794.403 339.104 797.603 343.248C799.132 345.227 802.769 341.377 803.83 340.404C806.49 337.966 816.108 321.164 818.038 323.427C823.829 330.215 804.105 345.523 801.879 351C795.27 367.258 795.116 387.853 796.831 405C797.204 408.73 796.331 417.223 798.6 420.248C800.215 422.403 810.476 408.011 810.403 414.527C810.346 419.526 804.275 426.232 802.468 431C798.332 441.911 793.68 466.509 798.654 477.697C800.432 481.697 807.451 481.061 811 480.985C822.38 480.743 833.589 482 845 482C847.936 482 854.934 483.26 857.188 480.972C859.428 478.697 856.82 465.676 857.17 462C859.161 441.079 858.531 419.124 857.92 398.09C857.816 394.514 858.863 377.074 856.077 375.346C853.689 373.864 849.518 384.458 848.887 385.996C845.317 394.708 841.786 404.543 842.015 414C842.106 417.787 845.486 426.334 842.567 429.364C838.264 433.832 837.246 414.052 833.998 415.346C823.357 419.582 818.869 445.668 822.89 454.941C824.392 458.405 831.712 458.017 831.654 461.05C831.523 467.889 820.374 460.912 818.653 458.787C810.274 448.444 818.137 431.664 823.323 422C839.328 392.172 855.282 367.074 859.711 333C860.924 323.66 859.763 313.211 854.772 305.039C853.057 302.232 844.056 297.416 844.056 294.617C844.056 290.506 857.193 299.773 858.972 298.11C860.877 296.33 860 291.32 860 289C860.001 279.994 859.81 270.996 859.848 262C859.857 259.83 860.586 253.59 858.155 252.346C851.464 248.919 850.546 270.735 848.53 271.793C845.15 273.568 846.22 264.194 841.892 266.752C826.721 275.716 827.244 299.408 834.398 313C836.926 317.803 842.967 322.2 844.67 327.046C845.851 330.407 840.154 329.396 839.314 332.191C837.651 337.722 839.902 344.23 838.915 350C837.056 360.863 831.418 371.254 826.475 381C825.633 382.659 823.38 389.909 820.677 389.23C818.216 388.611 820.801 383.163 821.313 382C823.863 376.215 827.308 370.863 829.688 365C830.149 363.863 832.34 359.363 830.802 358.346C829.145 357.249 815.74 371.937 814.77 367.974C814.026 364.934 821.941 359.933 823.699 357.961C828.997 352.016 833.314 343.13 833.367 335C833.444 322.98 827.064 314.156 824.339 303C823.853 301.009 823.537 292.1 819.942 293.346C809.001 297.137 811.331 312.354 805.201 318.364C802.655 320.86 802.075 315.408 802.232 313.998C803.162 305.641 810.573 298.222 815.551 292C828.387 275.954 849.948 258.869 858.062 240C863.497 227.359 858.029 214.991 852.176 204.001C850.575 200.994 843.348 192.338 839.032 196.117z"/>
<path style="fill:#000000; stroke:none;" d="M1140 208.668C1122.6 213.582 1134.96 236.185 1131.67 247.812C1130.03 253.603 1115.09 244.723 1114.75 253.768C1114.64 256.664 1121.41 253.506 1123 253.677C1127.53 254.163 1130.46 258.125 1132.14 262.001C1135.29 269.266 1134.97 281.724 1129.72 287.977C1128 290.03 1122.29 291.63 1121.46 293.63C1120.12 296.838 1126.08 297.939 1127.99 297.522C1134.85 296.02 1136.88 285.753 1138.25 280C1142.67 261.486 1133.43 241.014 1135.8 222.004C1136.24 218.514 1138.93 214.206 1142.96 214.306C1144.75 214.35 1149.09 219.58 1149.68 216.623C1150.79 211.108 1144.83 207.304 1140 208.668M617 222.5C613.176 223.276 611.624 229.845 614.5 232.5C616.595 234.433 623.247 233.44 626 234.167C632.042 235.761 636.388 242.569 638.5 248C640.252 252.504 640.751 260.325 640.167 265C640.067 265.796 640.575 269.667 639.667 269.667C637.408 269.667 632.765 261.881 631 260.333C623.637 253.876 614.823 247.333 606 243.167C573.949 228.031 523.943 235.713 497 260C487.754 268.335 481.927 279.985 474.833 290C464.462 304.642 460.398 319.967 455.667 337C447.664 365.808 438.641 396.463 447.667 426C451.086 437.189 452.562 450.159 460.333 459.833C463.978 464.371 468.73 467.458 472.833 471.333C477.874 476.094 482.134 480.901 489 483.667C500.202 488.179 511.101 490.007 523 490.833C528.71 491.23 534.475 488.484 540 487.333C553.694 484.48 564.971 482.791 577 474.833C581.828 471.64 585.035 466.138 589 462C608.7 441.443 622.721 415.952 643 396C654.521 384.665 655.558 406.149 660.167 408.5C664.972 410.952 662.49 401.63 664.167 400.5C665.771 399.419 668.228 401.513 669.5 399.833C670.797 398.122 651.245 388.688 651 386.833C650.75 384.943 653.637 382.349 654.667 381C658.998 375.33 663.371 369.727 667.667 364C680.501 346.888 692.263 327.168 700.667 307C703.396 300.45 706.302 293.136 706.5 286C706.549 284.221 705.63 279.333 703.167 279.333C702.294 279.333 699.897 290.309 699.333 292C696.055 301.835 693.448 308.726 688.167 318C687.105 319.865 684.932 325.708 682.833 326.333C680.728 326.961 680.497 319.43 680 318C676.798 308.78 678.106 306.196 679 297C679.15 295.461 680.396 289.369 678 289.5C671.68 289.845 675.008 302.72 670.833 305.667C668.282 307.468 663.469 302.511 661.5 307C660.866 308.446 671.047 315.276 673 317.167C678.069 322.075 678.167 331.791 675.667 338C666.616 360.47 648.98 377.372 633.333 395.167C627.508 401.791 623.572 410.266 617.667 417C613.632 421.6 608.255 425.293 604.5 430.167C595.894 441.336 590.289 452.397 579 461.333C566.528 471.207 550.122 486.371 532 480.833C528.7 479.825 526.457 476.249 524 474C508.544 459.85 509 430.601 509 411C509 388.065 511.129 367.15 516.667 345C517.81 340.428 517.409 335.329 519.333 331C527.282 313.116 539.043 297.576 552 283C563.982 269.52 577.295 251.804 596 248.167C602.83 246.839 611.447 255.13 616.333 258.5C644.81 278.139 635.714 305.854 640.167 335C641.711 345.107 638.722 353.996 638.167 364C638.072 365.703 639.716 373.176 642.667 371.5C645.636 369.813 646.85 350.595 647 347C647.065 345.441 646.136 340.394 647.5 339.333C652.018 335.819 654.408 351.667 656 351.667C657.913 351.667 664.486 336.731 664.833 337.167C662.373 334.076 655.955 337.612 654.667 332C653.807 328.252 663.283 330.335 663.5 326C663.694 322.116 651.269 325.112 648.5 320C643.148 310.12 647.407 294.335 646.833 284C646.712 281.81 644.375 274.49 645.833 272.667C645.374 273.24 653.882 279.984 654.5 281C658.742 287.968 654.647 290.954 661.5 283.167C662.759 281.736 666.629 282.49 666.5 280C666.301 276.143 656.641 273.381 654 271C645.134 263.008 643.47 250.595 644.5 240C644.798 236.937 641.313 234.02 644.167 231.167C648.942 226.391 662.485 232.997 664.5 238C665.592 240.712 663.793 249.667 660 249.667C657.869 249.667 659.486 245.602 657.833 244.5C653.553 241.646 653.103 249.843 654.167 252C659.949 263.73 663.4 248.2 668 248C670.118 247.908 673.047 251.02 675 251.833C680.653 254.189 685.351 248.05 686.333 243C686.887 240.154 684.4 235.552 681.167 238.333C679.123 240.091 680.617 242.516 680.167 244.667C679.924 245.827 678.023 246.588 677 246.5C673.137 246.169 666.669 234.437 668.5 231.167C669.819 228.811 689.616 228.802 691.833 230.5C693.551 231.815 692.085 236.949 692 239C691.661 247.139 692 254.835 692 263C692 264.587 692.823 269.544 691.5 270.667C690.23 271.744 679.802 257.892 677.167 264.167C675.545 268.028 680.845 270.647 682.833 273C687.161 278.121 691.73 284.511 692 291C692.065 292.558 692.375 297.027 695 296.333C698.387 295.439 698 284.672 698 282C698 265.429 694.002 251.103 705.167 237C707.371 234.216 718.41 227.837 714.5 223.167C712.48 220.754 694.735 223 691 223C671.645 223 652.149 222.702 633 223.5C628.046 223.706 621.826 221.521 617 222.5M1088 229.769C1085.09 230.352 1080.89 232.271 1081.16 235.849C1081.44 239.553 1084.26 241.848 1083.81 246C1082.45 258.648 1068.64 275.269 1060.83 285C1059.73 286.378 1050.26 296.983 1055.17 297.454C1059.31 297.851 1063.01 291.683 1065.25 289C1072.28 280.563 1078.55 261.569 1088.85 257.06C1093.82 254.888 1091.16 266 1090.71 268C1090.4 269.4 1086.18 278.781 1086.82 278.794C1089.15 278.843 1090.37 275.437 1092.88 275.522C1094.95 275.591 1097.11 278.397 1099.29 277.288C1101.6 276.11 1097.71 271.323 1097.14 270C1094.75 264.534 1095.4 256.054 1098.41 251C1100.69 247.154 1103.69 240.134 1108.17 238.491C1112.14 237.034 1120.13 240.49 1122.82 235.675C1124.51 232.654 1119.71 232.348 1118 232.468C1107.58 233.198 1098.29 227.71 1088 229.769M1143.25 231.742C1141.87 232.385 1140.67 233.857 1141.83 235.302C1143.5 237.373 1148.38 236.18 1149.17 238.894C1150.05 241.896 1139.42 258.14 1143.33 256.917C1152.14 254.163 1162.43 244.655 1171 240.167C1173.11 239.062 1179.55 237.392 1180.08 234.729C1180.78 231.158 1173.67 232.406 1172 232.468C1163.49 232.782 1151.29 227.993 1143.25 231.742M1405 232.599C1402.47 233.223 1397.94 234.453 1398.89 237.954C1400.47 243.751 1408.36 247.558 1410.35 254C1412.36 260.512 1410.08 267.436 1410.08 274C1410.08 286.42 1412.22 299.739 1409.14 312C1408.57 314.266 1405.18 333.964 1408.6 333.383C1412.55 332.715 1416.87 326.729 1417.26 322.999C1418.96 306.687 1418.11 289.719 1420.29 273C1420.81 268.975 1427.64 261.06 1427.08 258.529C1426.47 255.804 1420.75 259.475 1419.07 257.408C1416.67 254.471 1418.26 242.067 1421.29 239.897C1429.27 234.186 1440.26 244.317 1441.09 252.001C1441.27 253.694 1439.75 261.707 1442.26 261.654C1444.2 261.614 1445.57 259.318 1446.74 258.099C1448.12 256.671 1451.71 254.87 1451.81 252.701C1452.13 245.882 1439.51 239.724 1453 240.019C1454.27 240.047 1455.67 240.092 1456.86 240.603C1467.92 245.366 1458.2 263.689 1453.57 268.985C1451.77 271.051 1448.21 273.357 1447.35 276.026C1446.49 278.653 1453.41 283.297 1455.72 282.964C1459.7 282.389 1458.12 270.056 1461.96 270.056C1464.49 270.056 1461.05 281.239 1465.26 279.654C1469.39 278.098 1468.87 272.471 1469.17 269C1470.03 258.929 1470.33 251.741 1476.15 243C1477.64 240.768 1479.34 237.824 1476.66 235.693C1473.14 232.89 1462.43 235 1458 235C1441.79 235 1420.58 228.758 1405 232.599M1717 234.428C1714.93 234.729 1708.53 235.168 1710.16 238.734C1713.57 246.198 1723.86 246.219 1727.03 255C1730.08 263.438 1727.03 273.36 1727.03 282C1727.03 299.323 1727.83 316.654 1728 334C1728.44 376.057 1728.52 419.126 1724.94 461C1724.31 468.415 1718.5 476.296 1712.71 480.683C1711.12 481.894 1702.98 482.608 1704.35 485.702C1705.83 489.066 1722.45 487.373 1726 487.679C1741.23 488.99 1756.81 486.258 1772 487.093C1780.16 487.542 1793.15 490.877 1800.92 488.681C1803.99 487.816 1803.76 485.42 1802.08 483.204C1799.23 479.465 1794.48 477.725 1791.65 473.91C1787.8 468.705 1788.59 460.139 1789.17 454C1790.13 443.879 1788.48 433.977 1789.09 424C1790.78 396.53 1793.78 368.788 1794.61 341C1794.85 332.93 1794.3 323.117 1793.13 315C1792.64 311.569 1790.35 306.476 1792.64 303.39C1800.54 292.757 1817.63 291.825 1829 287.761C1833.94 285.996 1839.8 281.963 1845 281.6C1848.87 281.329 1854.19 282.69 1858 283.517C1863.13 284.63 1868.67 286.632 1873 289.633C1874.86 290.921 1877.85 294.567 1880.4 294.079C1883.04 293.572 1881.15 289.212 1880.4 287.999C1879.05 285.808 1867.58 273.103 1867.64 273.093C1870.21 272.626 1873.95 275.201 1876 276.468C1888.15 283.98 1885.8 294.63 1884.98 307C1884.92 307.792 1884.1 319.887 1887.08 316.248C1889.95 312.747 1889.99 302.4 1890 298C1890.02 283.562 1881.76 269.671 1866 267.214C1860.18 266.306 1855.56 269.1 1850 269.138C1839.49 269.21 1832.71 267.531 1822 269.883C1815.75 271.256 1808.96 271.977 1803 274.348C1800.8 275.222 1797.06 277.906 1794.6 276.644C1791.85 275.229 1793.32 269.406 1793.29 267C1793.16 257.453 1790.52 251.178 1800 245.209C1802 243.951 1808.72 241.168 1806.17 237.738C1803.12 233.641 1788.62 236 1784 236C1762.08 236 1738.8 231.256 1717 234.428M1311 237.514C1295.53 238.481 1279.93 242.376 1267 251.286C1262.66 254.277 1256.8 257.157 1253.6 261.438C1252.75 262.583 1251.05 266.594 1253.6 267.079C1258.83 268.07 1271.45 255.497 1276 252.76C1288.8 245.052 1299.04 245.537 1313 245.17C1317.16 245.06 1326.96 242.316 1329.79 247.35C1330.9 249.31 1323.21 251.349 1322 251.646C1313.91 253.629 1303.89 251.729 1296.34 253.921C1294.62 254.42 1294.6 256.116 1295.66 257.317C1299.94 262.133 1306.83 258.021 1311.94 258.319C1315.12 258.503 1316.17 262.35 1319.14 262.249C1324.2 262.078 1327.64 255.922 1333 255.189C1344.21 253.656 1364.83 269.495 1361.92 282.364C1361.51 284.18 1355.78 278.211 1354.99 277.649C1348.51 273.039 1337.74 269.749 1330 268.2C1299.91 262.18 1267.66 266.276 1239 276.965C1232.7 279.313 1209.51 291.623 1216.2 301.534C1217.68 303.724 1219.25 301.298 1219.91 299.922C1225.37 288.605 1237.41 282.645 1249 278.887C1281.89 268.216 1320.09 265.239 1351 283.214C1367.45 292.78 1354.93 298.319 1356.17 312C1356.95 320.598 1362.61 330.555 1362.69 338.438C1362.7 339.552 1358.67 342.943 1358.29 346.001C1357.15 355.004 1359.85 364.405 1362.29 373C1364.64 381.282 1365.44 388.602 1362.91 396.999C1362.69 397.722 1360.51 402.793 1362.46 402.793C1366.58 402.793 1367.87 392.769 1368.39 390C1370.44 379.037 1366.65 367.488 1363.51 357C1362.76 354.515 1360.29 346.902 1363.64 345.207C1369.21 342.378 1366.26 364.913 1369.97 361.248C1372.4 358.841 1371.9 354.088 1372.04 351C1372.6 338.184 1363.84 329.633 1362.29 317C1361.9 313.839 1360.61 303.273 1363.85 301.207C1365.88 299.916 1366.99 306.031 1367.19 307C1367.81 310.015 1367.42 329.75 1370.32 326.534C1378.83 317.075 1368.47 300.117 1365.54 291.015C1363.76 285.498 1367.47 280.268 1365.12 274C1357.49 253.645 1333.06 236.135 1311 237.514z"/>
<path style="fill:#ffffff; stroke:none;" d="M1743 239.424C1740.65 239.733 1735.57 239.243 1733.81 241.028C1732.5 242.366 1733.47 254.496 1735.42 255.118C1737.35 255.734 1739.91 252.438 1741.18 251.424C1745.08 248.332 1750.74 244 1756 244.434C1766.46 245.297 1762.98 258.201 1756.64 255.632C1755.16 255.036 1762.74 244.725 1752 249.01C1741.12 253.349 1735.05 266.006 1735 277C1734.99 280.121 1733.92 287.437 1738.14 288.458C1740.45 289.016 1742.61 286.965 1743.22 284.909C1745.39 277.522 1744.03 271.117 1754 268.823C1758.65 267.754 1764.71 266.992 1769.09 269.252C1773.18 271.364 1781.3 278.538 1786.41 276.303C1788.68 275.313 1788.82 271.062 1788.87 269C1788.99 264.561 1790.41 243.457 1785.86 242.898C1778.24 241.964 1785.34 265.399 1771.38 261.339C1769.38 260.758 1781.14 251.632 1777.39 246.058C1771.91 237.897 1751.71 238.28 1743 239.424M553 242.464C521.135 248.094 494.597 263.326 478.918 293C473.97 302.366 472.51 312.664 474.46 323C474.94 325.544 475.521 331.555 478.37 332.654C482.706 334.326 481.205 323.017 481.41 321C482.759 307.777 483.885 297.745 499 293.225C513.422 288.912 515.559 303.359 513.536 313C513.042 315.35 513.534 320.596 517.09 320.079C522.877 319.237 524.447 307.117 527.3 303C538.563 286.748 545.995 273.21 562.871 261.651C564.457 260.565 575.96 248.416 575.654 248.013C573.385 245.02 562.213 251.494 560 252.645C546.665 259.579 537.637 267.246 531.106 281C529.865 283.613 526.459 296.944 523.21 296.944C521.049 296.944 521.57 293.198 521.829 291.998C522.486 288.96 529.255 277.447 526.292 275.198C522.726 272.491 505.757 275.949 502.144 278.032C500.408 279.033 497.646 286.456 495.314 283.454C489.379 275.812 507.178 272.376 510.157 269.273C511.862 267.496 512.154 262.447 514.73 261.755C517.259 261.076 517.158 266.872 518.614 267.987C521.265 270.016 528.196 269.425 530.98 267.973C538.991 263.797 528.99 258.429 533.333 254.881C535.038 253.489 540.024 257.242 543.001 256.293C549.112 254.345 554.035 249.193 559.995 246.691C561.27 246.156 564.793 245.242 564.793 243.379C564.793 240.804 554.526 242.194 553 242.464z"/>
<path style="fill:#000000; stroke:none;" d="M2294 245.333C2291.89 246.088 2290.7 247.863 2292.33 249.833C2294.99 253.045 2300.79 252.643 2303.83 256C2310.34 263.177 2312 278.785 2312 288C2312 319.352 2311.07 352.462 2308 384C2306.03 404.242 2312.11 425.785 2307.33 446C2304.81 456.694 2309.02 468.296 2304.5 479C2302.24 484.338 2294.43 490.14 2290 493.667C2288.12 495.163 2285.65 498.27 2289 499.667C2293.42 501.509 2301.24 500 2306 500C2319.62 500 2333.52 500.644 2347 499.333C2350.38 499.004 2357.89 502.172 2360.5 498.667C2366.16 491.064 2349 492.943 2349 492.167C2349 491.347 2360.69 481.869 2362.17 480C2363.11 478.803 2366.74 476.207 2364.83 474.5C2361.65 471.641 2358.64 477.89 2356 478C2353.9 478.087 2352.2 475.411 2350 475.167C2346.06 474.729 2338.14 481.87 2344 483.333C2346.31 483.91 2347.5 480.384 2349.67 480.833C2351.31 481.174 2351.73 483.542 2350.83 484.667C2346.08 490.611 2326.68 492.633 2320 491.333C2318.07 490.958 2313.79 492.26 2312.5 490.833C2310.4 488.521 2310.96 482.85 2311 480C2311.13 470.959 2310.13 455.356 2313.5 447C2315.03 443.195 2318.97 441.554 2320.67 438C2322.41 434.36 2326.3 423.765 2331 423.5C2334.5 423.303 2339.55 428.461 2338.83 432C2338.27 434.761 2335.07 435.225 2333.5 437.167C2330.01 441.468 2326.69 447.907 2324.5 453C2321.28 460.487 2324.62 468.065 2323.5 475C2322.95 478.377 2310.56 478.943 2317 483.667C2325.95 490.227 2326.5 472.985 2329.17 471.333C2331.08 470.149 2337.45 473.787 2340 474C2345.38 474.448 2353.21 469.568 2357 466C2359.63 463.529 2360.95 449 2364 449C2369.19 449 2368.78 459.876 2370.17 463C2372.92 469.204 2369.61 472.696 2369 479C2367.55 493.919 2362.38 506.359 2359.33 521C2358.47 525.123 2360.08 542.195 2368 538.5C2369.99 537.572 2365.17 526.335 2365.83 522C2368.45 504.9 2377.77 490.089 2381.33 473C2383.63 461.998 2388.13 452.614 2387 441C2386.4 434.805 2382.55 427.198 2383.5 421C2383.99 417.798 2386.61 415.034 2387.67 412C2392.81 397.198 2398.48 379.643 2400 364C2401.68 346.722 2399.44 330.36 2407.17 314C2409.49 309.088 2413.64 305.574 2416.5 301C2420.61 294.43 2424.38 287.929 2431 283.333C2448.45 271.216 2470.87 283.181 2475.83 302C2480.45 319.499 2472.11 337.608 2467.33 354C2465.73 359.494 2465.68 365.498 2464 371C2462.44 376.113 2456.33 396.001 2463.17 399.167C2469.36 402.032 2466.83 387.236 2467.17 385C2469.54 369.479 2473.73 353.05 2478.33 338C2478.96 335.956 2482.2 321.131 2483.83 322.333C2485.96 323.898 2484.2 326.959 2484 329C2483.29 336.347 2483.17 343.885 2481 351C2476.67 365.158 2475.46 379.639 2472.67 394C2470.24 406.496 2465.53 419.25 2465 432C2464.65 440.372 2465.9 449.73 2467.17 458C2467.37 459.342 2467.76 465.925 2469.83 465.333C2474.42 464.024 2472.17 457.064 2472 454C2471.34 442.204 2469.91 430.709 2472.83 419C2476.16 405.71 2477.74 392.362 2480.33 379C2487.18 343.776 2501.53 294.993 2461 274.167C2450.06 268.543 2437.16 274.348 2427 278.5C2400.91 289.158 2384.68 317.461 2382 345C2380.99 355.374 2380.75 365.647 2379.17 376C2378.94 377.496 2378.86 385 2376.33 385C2373.36 385 2376 367.723 2376 366C2376 353.72 2377.68 339.899 2379 328C2379.8 320.769 2377.94 313.172 2379.33 306C2382.12 291.684 2376.34 275.203 2384.33 262C2386.73 258.036 2398.75 254.071 2394.5 248.167C2391.78 244.395 2374.55 247.19 2370 247C2353.37 246.307 2335.33 247.587 2319 246C2312.49 245.367 2300.03 243.174 2294 245.333M2172 247.671C2157.77 249.017 2146.43 259.361 2136 268.074C2115.53 285.177 2105.25 304.695 2094.06 328C2087.56 341.533 2080.34 356.235 2077.2 371C2074.1 385.608 2072.7 400.233 2071.33 415C2071.04 418.189 2069.45 428.294 2074.06 429.306C2075.89 429.705 2077.4 413.323 2077.48 411C2077.99 396.594 2083.91 363.614 2101.94 359.819C2104.61 359.257 2106.39 362.439 2105.2 364.681C2102.66 369.464 2095.42 370.583 2093.2 376.005C2087.46 390.023 2106.14 398.536 2117 394.407C2122.74 392.222 2122.16 387.02 2126.21 383.574C2129.92 380.426 2132.94 385.841 2134.98 383.505C2138.45 379.542 2137.55 373.603 2139.29 369C2144.76 354.496 2148.79 338.216 2151.68 323C2153.51 313.371 2152.85 302.951 2158.16 294.065C2162.8 286.292 2175.53 279.986 2183 275.056C2184.9 273.801 2191.8 270.647 2190.44 267.435C2189.51 265.239 2186.14 267.508 2185 268.19C2179.71 271.343 2174.93 274.599 2169.94 278.139C2151.63 291.127 2127.7 300.839 2114.26 317.801C2113.23 319.102 2103.27 323.86 2103.26 322.981C2103.18 318.404 2114.03 305.404 2117.26 302.083C2124.41 294.747 2136.39 293.52 2144.87 288.653C2159.05 280.513 2172.9 268.15 2189 263.894C2198.28 261.441 2206.96 264.988 2215 269.06C2216.33 269.734 2221.68 272.659 2222.19 269.718C2222.93 265.366 2214.44 261.002 2215.52 257.657C2216.54 254.483 2225.25 266.033 2225.64 268C2228.01 279.757 2212.92 290.91 2218.08 302.912C2221.41 310.66 2222.41 288.916 2226.42 289.106C2228.37 289.199 2225.84 299.818 2225.45 301C2222.36 310.517 2214.73 317.17 2210.33 326C2209.76 327.148 2206.64 333.753 2208.74 334.634C2210.02 335.171 2215.69 327.09 2216.52 326C2223.88 316.379 2231.13 306.456 2232.73 294C2233.42 288.686 2229.45 286.505 2228.95 281.94C2228.22 275.274 2233.58 270.258 2230.92 263C2227.77 254.414 2216.43 246.573 2207 247.417C2203.77 247.706 2201.27 250.375 2198 250.241C2188.98 249.872 2181.32 246.79 2172 247.671M1608 252.518C1595.79 255.102 1582.77 259.006 1572.04 265.529C1569.05 267.349 1562.21 273.395 1565.06 277.534C1567.09 280.49 1574.85 269.983 1577 268.511C1588.08 260.93 1607.55 254.383 1621 257.6C1632.07 260.248 1647.77 273.075 1648.89 285C1649.26 288.882 1643.17 300.932 1645.09 303.079C1648.26 306.622 1651.01 286.05 1656.65 294.117C1674.51 319.661 1654.7 346.286 1649.12 371C1648.12 375.452 1643.31 397.377 1650.2 399.369C1652.29 399.974 1652.81 389.443 1652.91 388C1653.85 375.205 1657.48 364.834 1662.2 353C1662.74 351.656 1666.95 339.091 1668.45 341.636C1670.03 344.32 1669.06 349.986 1668.99 353C1668.71 364.179 1665.81 376.118 1663.35 387C1661.07 397.089 1655.71 405.331 1652.94 415C1645.92 439.469 1642.4 467.849 1647.89 493C1650.45 504.752 1655.48 514.778 1659.56 526C1660.47 528.495 1661.34 535.793 1664.98 535.793C1670.58 535.793 1664.14 522.291 1663.3 520C1656.46 501.219 1650.98 484.359 1650.71 464C1650.4 440.809 1660.58 419.653 1666.39 398C1675.9 362.596 1677.88 325.736 1661.24 292C1651.42 272.091 1633.82 247.052 1608 252.518z"/>
<path style="fill:#ffffff; stroke:none;" d="M2318.7 253.028C2315.21 255.67 2316 262.199 2316 266C2316 277.404 2316.54 288.636 2317.04 300C2317.14 302.209 2317.19 313.793 2320.14 313.793C2325.98 313.793 2325.62 303.485 2325.48 300C2325.32 295.96 2329.35 292.994 2328.97 289.325C2328.68 286.553 2325.22 284.755 2324.43 281.96C2323.25 277.732 2325.52 274.113 2325.66 270C2325.72 268.169 2324.03 264.675 2325.73 263.295C2327.25 262.063 2338.6 257.625 2338.09 260.117C2336.56 267.698 2319.61 281.378 2335.98 286.728C2343.39 289.152 2337.53 275.955 2344.95 276.372C2345.36 276.395 2347.23 287.479 2349.17 289.575C2350.65 291.162 2352.89 294.035 2355.17 294.377C2356.73 294.61 2362.62 290.192 2363.23 292.457C2363.87 294.792 2359.18 300.232 2358.69 303C2357.98 307.01 2359.67 310.969 2358.73 315C2356.92 322.73 2352.31 329.854 2349.16 337C2348.01 339.627 2348.8 348.227 2353.61 345.824C2355.86 344.7 2356.45 341.029 2357.55 339C2362.59 329.699 2362.29 320.208 2366.22 311.292C2367.66 308.046 2371.45 311.525 2372.51 306.941C2373.5 302.631 2373 297.101 2371.44 293C2366.87 281.026 2353.82 281.476 2358.35 267.016C2358.69 265.939 2361.82 260.507 2363.38 263.122C2365.21 266.194 2362.22 272.129 2364.18 275.996C2365.19 277.985 2370.18 284.481 2372.97 282.118C2376.33 279.274 2375.99 259.648 2373.22 256.603C2370.94 254.096 2362.18 253.999 2359 254.434C2353.76 255.149 2349.77 259.986 2346.83 263.991C2345.99 265.139 2344.37 268.672 2342.41 267.963C2338.36 266.492 2350.95 256.091 2349.66 253.938C2348.79 252.484 2344.46 252.62 2343 252.424C2337.6 251.703 2323.22 249.616 2318.7 253.028z"/>
<path style="fill:#000000; stroke:none;" d="M1516 253.757C1488.91 255.271 1475.66 285.411 1451 291.085C1444.66 292.543 1435.6 288.682 1433.66 282.015C1432.78 278.974 1440.67 271.557 1433.94 272.287C1424.44 273.319 1429.12 282.561 1426.24 287.83C1424.96 290.164 1421.01 292.45 1421.83 295.566C1422.4 297.709 1425.07 297.589 1426.63 296.792C1433.9 293.089 1435.67 294.154 1444 295.421C1445.5 295.649 1449.9 295.618 1450.37 297.563C1451.39 301.758 1438.69 309.991 1436 312.3C1423.65 322.906 1407.51 338.86 1401.09 354C1399.55 357.624 1394.15 375.352 1401.12 377.079C1403.6 377.694 1402.99 371.16 1403 370C1403.2 357.533 1410.44 352.39 1417.24 343C1433.35 320.745 1455.95 302.41 1476.49 284.316C1484.41 277.331 1490.85 269.455 1500.83 264.889C1507.69 261.75 1518.99 257.838 1526 260.924C1527.39 261.537 1532.94 263.027 1532.94 264.986C1532.94 266.685 1529.11 267.226 1528 267.679C1525 268.899 1508.49 278.112 1514.55 283.079C1516.28 284.495 1524.86 275.153 1527 273.97C1535.17 269.453 1544.94 271.171 1551.71 277.38C1562.58 287.35 1565.33 303.923 1563.83 318C1563.62 319.921 1560.08 330.951 1564.87 330.079C1567.56 329.59 1568.44 325.139 1568.96 323C1571.1 314.153 1568.93 307.492 1567.17 299C1562.81 277.932 1539.77 252.429 1516 253.757z"/>
<path style="fill:#ffffff; stroke:none;" d="M2171 253.515C2158.27 256.125 2146.64 264.413 2138.13 274C2136.67 275.644 2127.14 288.249 2134.15 287.778C2145.44 287.02 2153.68 270.429 2163 264.951C2171.19 260.136 2180.71 259.551 2190 259.258C2193.64 259.144 2198.93 260.612 2202.25 258.47C2204.94 256.731 2195.86 254.839 2195 254.665C2187.67 253.184 2178.39 252 2171 253.515z"/>
<path style="fill:#000000; stroke:none;" d="M365.394 261.346C363.577 262.322 363.689 270.225 363.85 272.17C364.854 284.332 363.324 291.567 358.691 303C345.789 334.845 319.001 345.75 295.289 367.514C290.354 372.044 284.891 378.3 281.363 383.999C280.02 386.17 279.051 390.354 283.023 390.248C290.366 390.052 299.602 373.272 305.043 368.665C317.539 358.086 333.234 350.271 344.83 338.826C356.184 327.621 362.436 313.562 368.204 299C372.062 289.26 373.182 280.345 370.522 270C370.137 268.506 368.135 259.872 365.394 261.346M1919 269.464C1912.28 270.651 1905.03 272.555 1899.01 275.824C1897.69 276.539 1893.12 279.077 1894.92 281.199C1896.82 283.442 1902.95 279.265 1905 278.622C1915.08 275.467 1925.52 275.144 1936 276.059C1940.92 276.488 1944.57 279.95 1944.8 285C1944.87 286.43 1943.35 291.755 1945.39 292.369C1949.19 293.506 1949.1 282.35 1950.6 281.037C1954.05 278.016 1964.45 294.461 1965.82 297C1979.35 322.074 1963.12 353.733 1961.96 380C1961.64 387.191 1957.19 405.031 1964.49 410.079C1967.32 412.032 1966 398.708 1966 397C1965.99 381.374 1967 365.291 1970.5 350C1970.98 347.889 1975.23 332.148 1975.29 332.207C1976.75 333.675 1976 338.136 1976 340C1976 347.735 1975.22 355.314 1975.01 363C1974.44 384.951 1970.45 407.064 1968.91 429C1968.44 435.735 1962.54 448.733 1963.98 454.583C1964.52 456.75 1968.26 456.177 1969.49 458.252C1973.23 464.569 1980.24 485.459 1989.64 485.654C1993.5 485.735 1985.66 476.773 1985 476C1971.98 460.628 1973.62 442.751 1974.91 424C1975.78 411.36 1976.65 398.603 1978.11 386.009C1978.72 380.757 1983.36 383.573 1984.04 380.625C1985.46 374.411 1980.93 364.728 1981.02 358C1981.43 325.088 1978.92 271.371 1935 269.258C1929.73 269.005 1924.23 268.539 1919 269.464z"/>
<path style="fill:#ffffff; stroke:none;" d="M1832 273.424C1827.94 273.959 1823.99 274.331 1820 275.255C1815.3 276.342 1809.42 275.964 1805.17 278.438C1799.17 281.931 1809.32 283.913 1812 283.66C1823.05 282.618 1832.41 276.826 1844 277.054C1848.24 277.137 1857.34 281.124 1861.08 278.502C1863.13 277.06 1855.66 275.066 1855 274.934C1847.32 273.4 1839.83 272.394 1832 273.424z"/>
<path style="fill:#000000; stroke:none;" d="M1124.41 275.086C1116.87 278.918 1107.85 292.521 1102.21 298.996C1099.75 301.82 1097.17 306.694 1093.31 307.833C1086.41 309.871 1093.86 286.789 1093.38 286.631C1090.93 285.842 1089.21 292.786 1086.78 293.427C1084.53 294.018 1080.81 290.976 1078.92 293.008C1077.55 294.485 1086.02 304.305 1086.6 307C1088.59 316.277 1078.49 326.029 1073.65 333C1072.65 334.435 1068.8 340.576 1073.23 340.654C1078.87 340.753 1083.61 327.783 1086.53 324C1090.23 319.212 1095.36 317.58 1099.39 313.571C1106.43 306.565 1113.95 297.928 1120 290C1122.57 286.628 1126.93 283.146 1128.2 279.019C1129.02 276.363 1127.33 273.604 1124.41 275.086M1305.98 276.047C1298.08 279.845 1298.21 292.009 1291 295.079C1287.2 296.694 1272.15 278.434 1268.5 287.361C1267.53 289.727 1277.97 292.166 1279.87 294.109C1286.1 300.479 1283.68 311.494 1280.65 319C1279.86 320.945 1278.21 325.868 1275.82 326.369C1269.92 327.606 1273.73 312.221 1272.95 310.004C1269.11 299.152 1252.46 298.704 1244.1 304.086C1232.73 311.415 1240.34 326.294 1242.37 336C1243.17 339.82 1240.61 345.65 1236.28 346.369C1232.28 347.033 1230.25 333.774 1229.67 331C1227.59 321.108 1225.63 315.386 1230.75 306C1233.46 301.03 1243.08 293.1 1242.46 287.207C1242.1 283.88 1238.31 286.631 1237.04 287.654C1228.52 294.49 1223.15 309.283 1218.51 319C1203.59 350.284 1192.35 388.02 1199.17 423C1201.99 437.417 1212.28 452.333 1222.59 462.245C1225.38 464.925 1230.99 472.157 1235.62 470.353C1240.05 468.626 1225.75 455.803 1224.21 454C1211.42 439.057 1201.97 417.672 1206.2 398C1207.03 394.131 1210.6 381.531 1215.22 380.631C1218.07 380.074 1219.67 384.891 1219.27 386.961C1218.22 392.403 1214.65 395.835 1214.73 402C1214.81 409.673 1220.36 416.717 1222.37 424C1223.25 427.211 1221.81 432.715 1224.01 435.338C1228.03 440.126 1227.05 423.454 1233.11 431.128C1237.98 437.28 1237.18 441.843 1236.52 448.98C1236.4 450.292 1236.33 452.793 1238.27 452.793C1243.35 452.793 1243.21 443.199 1242.81 440C1241.71 431.029 1234.7 422.536 1228.95 416C1227.08 413.872 1221.88 409.104 1223.51 405.746C1225.1 402.463 1232.38 405.654 1235 405.653C1241.84 405.65 1250.2 401.914 1252.35 394.999C1254.87 386.86 1247.86 380.232 1245.5 373C1244.55 370.087 1243.93 365.559 1247.7 364.207C1251.32 362.908 1254.35 372.617 1255.16 375C1258.02 383.354 1256.84 406.025 1251.57 413.589C1248.61 417.825 1237.79 408.007 1236.63 413.2C1236.15 415.362 1239.61 416.481 1241.01 417.151C1249.75 421.34 1249.24 424.207 1253.82 431.887C1254.68 433.311 1256.43 435.706 1258.3 434.168C1261.28 431.704 1258.13 425.19 1258.02 422C1257.68 412.271 1260.02 401.552 1261.8 392C1267.73 360.368 1279.19 329.086 1294.86 301C1298.88 293.794 1303.85 287.677 1308.57 281.005C1310.63 278.092 1310.66 273.796 1305.98 276.047M1048.04 283.693C1032.49 288.041 1047.42 319.556 1051.14 328C1059.49 346.936 1071.32 364.035 1081.47 382C1087.79 393.178 1092.17 405.645 1098.31 417C1104.27 428.021 1114.13 438.696 1117.26 451C1119.98 461.704 1103.21 471.099 1095 474.525C1091.54 475.971 1084.11 478.454 1084.2 483.396C1084.25 485.637 1099.67 484 1102 484C1117.42 484 1133.7 484.091 1149 482.285C1153.08 481.804 1158.94 483.215 1162.68 481.4C1165.55 480.005 1164.19 477.318 1161.85 476.39C1141.39 468.269 1128.47 459.624 1117.69 440C1113.32 432.058 1107.41 425.073 1103.26 417C1089.75 390.721 1079.48 363.933 1063.45 339C1059.92 333.509 1059.17 327.434 1060.22 321C1060.43 319.743 1063.16 314.32 1061.85 313.461C1059.1 311.65 1057.47 320.037 1054.52 318.079C1049.73 314.903 1045.7 298.195 1047.74 293.019C1048.77 290.401 1054.79 288.111 1054.79 285.965C1054.79 283.188 1049.74 283.218 1048.04 283.693z"/>
<path style="fill:#ffffff; stroke:none;" d="M1754.29 284.988C1743.81 290.32 1733.64 296.873 1733.04 310C1732.76 316.175 1733.45 322.279 1735.95 327.995C1736.6 329.47 1738.39 333.645 1740.67 332.654C1743.18 331.565 1742.79 327.1 1742.56 325C1741.83 318.317 1740.84 312.288 1744.16 306C1747.83 299.075 1754.97 293.734 1762.71 292.704C1766.5 292.2 1769.38 295.571 1772.62 291.852C1778.06 285.61 1758.13 283.031 1754.29 284.988M1783 290.832C1777.54 292.276 1770.38 299.48 1767.62 304.285C1765.88 307.317 1768.16 312.432 1772.09 311.828C1778.85 310.789 1781.84 302.599 1787.13 299.441C1789.88 297.798 1795.24 297.454 1796.65 294.104C1797.62 291.822 1784.88 290.333 1783 290.832z"/>
<path style="fill:#000000; stroke:none;" d="M1554.03 293.631C1548.96 294.661 1547.57 306.989 1546.8 311C1543.22 329.758 1558.24 350.382 1563.22 368C1565.18 374.956 1562.95 379.266 1562.38 385.98C1562.25 387.608 1562.6 390.394 1564.92 389.94C1571.71 388.614 1569.71 372.367 1568.62 368C1564.23 350.298 1548.15 328.442 1551.81 310C1552.19 308.081 1558.43 292.736 1554.03 293.631z"/>
<path style="fill:#ffffff; stroke:none;" d="M1754.85 299.346C1743.07 303.838 1756.47 323.451 1760.67 328.999C1762.61 331.571 1765.56 336.932 1769.56 334.914C1778.77 330.262 1762.44 314.427 1759.96 308C1759.33 306.365 1757.23 298.44 1754.85 299.346M2409.33 298.5C2405.1 300.963 2402.44 307.158 2399.67 311C2386.7 328.954 2385.09 359.47 2383 381C2382.63 384.818 2382.79 389.313 2381.67 393C2380.52 396.755 2376.55 400.099 2376.17 404C2375.94 406.359 2378.04 410.676 2381 409.5C2387.08 407.087 2388.75 389.443 2390.33 384C2397.41 359.751 2390.19 336.065 2403 313C2404.26 310.725 2410.16 298.017 2409.33 298.5z"/>
<path style="fill:#000000; stroke:none;" d="M1464.08 302.346C1459.66 302.435 1461.09 312.345 1460.91 315C1460.22 325.053 1459.2 337.547 1453.85 346C1452.42 348.249 1449.73 353.944 1446.54 353.944C1443.38 353.944 1442.38 348.191 1443.02 346C1445.38 337.93 1452.19 332.754 1452.45 323.999C1452.51 321.907 1453.48 314.207 1449.75 314.207C1448.18 314.207 1446.81 316.066 1445.84 317.063C1444.46 318.487 1439.63 322.608 1440.54 324.977C1441.65 327.875 1448.96 326.402 1446.11 331.947C1442.85 338.281 1433.4 335.872 1429.21 341.39C1425.32 346.513 1420.01 353.643 1418.7 360C1417.61 365.258 1421.27 372.268 1416.34 376.379C1413.86 378.451 1413.11 373.529 1412.81 371.998C1412.33 369.535 1414.63 353.315 1411.38 356.466C1403.88 363.734 1407.42 378.598 1406.96 388C1406.72 392.869 1404.32 397.152 1404.04 402C1402.88 422.637 1404.02 443.378 1404.07 464C1404.08 471.193 1401.84 478.988 1395.96 483.57C1393.47 485.512 1389.64 485.946 1387.62 488.425C1386.01 490.403 1386.47 492.961 1389.15 493.397C1396.07 494.527 1417.11 494.779 1419.67 486.723C1420.58 483.867 1410.52 484.317 1410.06 478.981C1407.71 451.598 1406.09 417.94 1415.17 392C1417.45 385.456 1422.38 370.046 1429.1 366.921C1436.99 363.255 1434.55 377.089 1433.63 380C1429.69 392.444 1412.25 404.957 1429 416.436C1435.04 420.57 1449.72 418.322 1453.47 411.981C1454.39 410.413 1455.74 400.056 1456.74 400.056C1458.98 400.056 1458.95 407.612 1458.99 409C1459.2 418.423 1458.95 428.637 1458.32 438C1458.25 439.07 1458.64 447.283 1461.29 445.079C1466.69 440.576 1463.76 422.385 1464.04 416C1464.56 404.012 1466.99 390.942 1465.9 379C1464.59 364.732 1460.8 348.299 1463.82 334C1465.53 325.909 1465.4 318.19 1466.42 310C1466.68 307.973 1467.65 302.274 1464.08 302.346M1435 302.639C1430.58 303.9 1427.03 306.947 1424.92 311.003C1424.13 312.536 1422.41 317.778 1426.15 316.654C1430.09 315.474 1447.47 299.079 1435 302.639M1880.19 306.366C1874.81 308.549 1880.05 323.672 1881.44 327C1881.92 328.165 1883.54 332.286 1885.44 331.634C1887.04 331.082 1884.98 326.88 1884.68 326C1883.9 323.722 1878.87 306.9 1880.19 306.366z"/>
<path style="fill:#ffffff; stroke:none;" d="M497 306.444C493.316 306.776 480.092 313.149 488.603 317.713C491.436 319.231 494.545 316.002 497.012 319.323C500.034 323.391 501.957 333.951 502.699 339C503.26 342.819 497.03 362.793 503.835 362.793C508.015 362.793 510.183 352.012 510.675 349C512.227 339.507 510.744 305.203 497 306.444M2135.19 307.032C2130.15 310.114 2137.01 320.324 2136.97 325C2136.88 334.808 2127.22 341.279 2122.62 349C2121.69 350.562 2120.77 357.042 2124.51 355.655C2127.08 354.705 2129.42 350.698 2131.41 348.843C2139.02 341.754 2146.8 335.254 2146.82 324C2146.83 318.721 2144.53 301.328 2135.19 307.032M1784.74 309.176C1779.01 310.51 1782.55 322.788 1781.77 326.996C1780.32 334.84 1769.42 340.676 1766.08 348.09C1764.8 350.942 1766.57 355.33 1770.09 355.248C1782.37 354.963 1789.76 332.59 1788.41 323.004C1788.1 320.748 1788.33 308.341 1784.74 309.176M2343 308.48C2317.48 312.374 2317.21 334.941 2314.58 355C2313.79 360.967 2313.96 366.987 2314 372.999C2314.01 373.964 2313.53 378.842 2315.51 378.369C2323.8 376.386 2321.38 356.94 2323.62 351C2327.3 341.245 2331.99 333.107 2340.17 326.316C2344.12 323.034 2350.1 323.547 2353.13 318.87C2357.88 311.535 2349.17 307.539 2343 308.48z"/>
<path style="fill:#000000; stroke:none;" d="M1892.87 313.106C1890.31 313.178 1890.5 316.291 1890.56 318.005C1890.85 326.71 1888.76 332.875 1885.75 341C1885.26 342.31 1883.48 347.691 1885.55 348.634C1886.85 349.227 1889.23 342.85 1889.59 342C1892.4 335.379 1896.64 327.341 1895.74 320C1895.54 318.331 1895.38 313.037 1892.87 313.106z"/>
<path style="fill:#ffffff; stroke:none;" d="M1247.17 316.013C1244.71 317.338 1240.27 322.227 1243.03 325.157C1244.96 327.202 1248.7 324.939 1251 324.907C1254.65 324.857 1257.95 327.127 1260.28 329.769C1268.59 339.198 1259.89 353.547 1257.03 362.999C1256.55 364.577 1256.79 369.717 1259.65 369.079C1262.96 368.343 1265.13 357.784 1266.03 355C1268.62 346.943 1271.52 338.637 1269.58 330C1267.44 320.481 1257.77 310.325 1247.17 316.013z"/>
<path style="fill:#000000; stroke:none;" d="M2225.36 318.176C2223.01 319.621 2222.05 323.821 2220.44 326C2216.65 331.126 2211.15 337.621 2205.96 341.347C2199.76 345.796 2178.68 343.347 2177.02 353.812C2176.58 356.568 2184.07 352.552 2185 352.157C2193.91 348.39 2205.01 348.306 2213 342.501C2218.63 338.414 2223.28 332.34 2226.1 326C2226.53 325.014 2229.24 315.792 2225.36 318.176z"/>
<path style="fill:#ffffff; stroke:none;" d="M466.515 322.176C463.543 323.98 462.867 329.944 462.13 333C459.064 345.728 463.06 355.68 465.6 368C466.439 372.073 467.496 383.416 473.96 379.654C483.074 374.351 469.938 353.049 469.133 345C468.664 340.308 471.641 336.515 471.404 332C471.309 330.195 469.777 320.197 466.515 322.176M2119 324.424C2107.22 325.966 2099.82 329.681 2094.7 341C2093.72 343.163 2086.44 360.092 2093.09 358.94C2097.31 358.208 2101.32 344.577 2105.02 341.174C2108.57 337.908 2112.93 334.173 2118 334.099C2120.73 334.059 2124.8 336.8 2127.25 335.698C2137.78 330.956 2125.3 323.6 2119 324.424M491.332 327.172C484.792 330.05 480.451 340.225 477.109 345.999C475.84 348.192 474.489 353.344 479.044 352.248C483.036 351.288 494.996 338.723 496.353 334.826C497.315 332.065 495.251 325.447 491.332 327.172z"/>
<path style="fill:#000000; stroke:none;" d="M694.299 330.137C690.659 332.126 692 339.607 692 343C692 355.964 692.711 367.092 691.001 380C690.726 382.071 691.696 392.725 689.698 393.369C688.211 393.848 686.266 388.919 685.719 387.999C681.509 380.918 684.184 376.437 685.127 369.045C685.323 367.511 684.987 365.384 682.992 365.346C679.088 365.27 678.549 373.368 677.96 375.966C677.139 379.586 672.354 379.622 672.033 382.282C671.353 387.926 683.407 395.555 685.397 401C686.732 404.651 685.12 415.78 689.459 417.654C692.044 418.771 693.878 413.662 694.362 411.999C695.301 408.772 694.298 389.056 699.576 389.056C703.379 389.056 704.594 400.524 704.177 403C702.516 412.841 696.431 418.285 690.756 426C688.941 428.468 686.909 433.49 683.992 434.793C682.003 435.682 681.082 430.277 680.258 429.144C678.34 426.503 674.608 425.775 673.067 422.856C671.52 419.926 673.896 416.456 672.425 413.662C671.813 412.499 670.707 412.885 669.946 413.661C668.929 414.699 664.167 420.832 664.202 422.09C664.283 424.947 669.999 427.507 671.811 429.301C676.635 434.078 677.075 441.036 674.164 447C671.371 452.723 662.16 466.743 655.938 468.793C652.307 469.99 651.581 461.937 648.589 463.461C647.163 464.188 648.744 477.237 647.656 480C642.551 492.963 628.03 500.87 622.36 514C617.124 526.124 624.252 539.751 638.985 534.311C643.082 532.798 648.061 526.8 642.757 523.457C634.911 518.512 637.523 525.727 635.816 528.566C633.909 531.74 628.125 528.988 626.643 526.852C620.1 517.422 640.261 499.956 645.424 494C661.913 474.982 677.841 454.778 692.089 434C699.379 423.37 706.905 415.786 710.365 403C713.516 391.355 701.361 385.096 698.546 375C695.431 363.831 697.634 346.515 698.95 335.015C699.252 332.378 697.774 328.238 694.299 330.137z"/>
<path style="fill:#ffffff; stroke:none;" d="M1751.98 330.542C1746.59 330.901 1742.93 339.018 1740.67 343C1732.08 358.108 1733.11 376.063 1733 393C1732.98 396.41 1729.64 411.707 1732.94 413.655C1735.77 415.325 1742.22 406.02 1747.78 409.194C1752.85 412.086 1750.21 424.771 1744.46 422.539C1741.85 421.527 1748.7 410.919 1741.96 414.086C1737.02 416.403 1735.73 422.18 1734.8 427C1732.4 439.51 1731 453.327 1731 466C1731 470.322 1728.94 480.657 1734.15 482.427C1745.86 486.404 1770.58 480.762 1770.95 466C1771.11 459.433 1763.39 454.331 1763.68 449.553C1763.78 447.848 1766.62 446.489 1767.3 444.831C1768.41 442.144 1769.31 426.607 1774.43 427.77C1777.35 428.434 1773.25 439.826 1773.09 442C1772.44 450.911 1777.6 460.538 1775.74 469C1775.19 471.516 1770.05 477.703 1771.33 479.969C1772.22 481.547 1778.3 481.438 1779.85 481.201C1784.52 480.489 1783.45 469.636 1783.71 466C1784.72 452.111 1783.13 437.705 1784.59 424C1784.89 421.178 1786.7 411.07 1783.97 409.176C1780.55 406.797 1769.03 423.558 1766.83 426C1759.28 434.391 1742.61 448.835 1745.52 461.937C1746.81 467.734 1754.81 460.815 1754.66 465.243C1754.46 471.221 1746.66 470.814 1743.65 467.581C1735.98 459.352 1746.34 453.206 1744.19 445.274C1743.69 443.461 1739.19 441.596 1740.21 439.634C1741.45 437.214 1747.71 437.847 1750 436.397C1755.55 432.885 1760.66 426.081 1764.77 421.005C1769.17 415.565 1761.83 414.397 1763.21 412.106C1764.49 409.97 1769.85 410.347 1771.96 409.436C1775.27 408.007 1777.65 404.665 1779.93 402C1788.19 392.381 1786.3 376.83 1786.01 365C1785.93 361.715 1787.4 354.517 1785.41 351.752C1783.31 348.839 1779.88 356.518 1779.8 357.999C1779.49 363.471 1781.96 368.302 1780.65 374.039C1777.3 388.602 1758.48 410.776 1744.64 392.907C1732.13 376.754 1746.99 354.073 1754.79 340C1756.44 337.021 1757.63 330.166 1751.98 330.542M1223.89 334.346C1219.29 334.429 1216.44 346.502 1216.1 350C1214.87 363.039 1219.41 394.215 1238 390.772C1240.42 390.322 1245.11 387.781 1242.91 384.614C1241.25 382.219 1237.1 383.887 1234.91 381.643C1230 376.624 1221.94 360.167 1223.06 353C1223.6 349.504 1226.84 347.285 1227.89 344C1228.72 341.417 1227.68 334.277 1223.89 334.346z"/>
<path style="fill:#000000; stroke:none;" d="M1881.02 334.346C1868.39 339.35 1883.6 361.485 1887.1 367C1888.04 368.482 1890.32 376.655 1892.53 376.079C1895.48 375.311 1892.08 368.309 1891.32 367C1884.83 355.936 1879.74 350.215 1882.54 337.063C1882.79 335.918 1882.99 333.568 1881.02 334.346z"/>
<path style="fill:#ffffff; stroke:none;" d="M2368.41 334.346C2365.21 335.626 2361.68 342.756 2361.65 346C2361.6 352.39 2363.78 357.452 2361.66 364C2358.01 375.271 2348 383.08 2344.11 394C2342.94 397.3 2344.83 405.141 2349.79 403.654C2353.58 402.518 2355.78 395.142 2357.47 392C2363.6 380.629 2371.83 367.262 2372 354C2372.03 351.617 2373.99 332.114 2368.41 334.346M2339.41 335.256C2335.49 334.928 2331.45 340.554 2331.47 344C2331.53 352.998 2335.15 362.087 2339 370C2340.15 372.363 2341.96 377.565 2345 378.079C2349.21 378.791 2348.94 370.346 2349.37 368C2351.06 358.977 2347.16 351.244 2343.48 343C2342.73 341.318 2341.66 335.444 2339.41 335.256M1254.98 339.083C1247.43 342.234 1233.64 352.861 1230.12 360.285C1228.96 362.736 1231.35 372.208 1235.24 370.654C1237.91 369.588 1240.66 364.182 1242.58 362.04C1247.29 356.8 1254.74 354.099 1258.44 347.985C1260.3 344.903 1260.85 336.631 1254.98 339.083M2110.87 341.346C2102.78 344.647 2109.67 357.427 2111.88 361.999C2112.92 364.144 2113.68 368.617 2117.04 367.654C2128.32 364.426 2115.29 353.233 2113.6 348.91C2113.07 347.544 2113.59 340.236 2110.87 341.346z"/>
<path style="fill:#000000; stroke:none;" d="M1893.38 345.631C1890.99 346.328 1890.86 357.924 1893.5 356.654C1896.34 355.291 1896.74 344.65 1893.38 345.631z"/>
<path style="fill:#ffffff; stroke:none;" d="M1756.37 347.346C1742.61 352.77 1762.27 367.707 1760.74 374.247C1760.29 376.152 1758.38 377.784 1756.56 376.365C1754.7 374.911 1754.71 371.359 1751.96 370.921C1748.36 370.347 1748.08 375.698 1748.02 378C1747.79 385.777 1752.16 392.729 1760.98 389.258C1774.74 383.85 1766.66 366.743 1762.65 358C1761.83 356.202 1758.64 346.452 1756.37 347.346M488.806 349.631C484.142 350.551 485.762 357.191 486.866 360C492.027 373.137 496.598 383.16 495.354 396.995C495.156 399.202 496.305 402.362 499.071 401.824C504.031 400.859 503 393.584 503 390C503.001 377.931 503.457 369.101 495.892 359C494.662 357.357 491.023 349.194 488.806 349.631M1432.36 349.306C1425.25 352.034 1439.27 367.996 1441.94 370.71C1443.02 371.808 1445.76 375.556 1447.61 375.083C1449.97 374.482 1450.54 367.788 1450.01 366.004C1448.84 362.033 1437.03 347.514 1432.36 349.306M1454.96 351.346C1448.93 353.566 1454.29 369.491 1452.66 375C1450.9 380.922 1450.3 388.111 1444.9 392.017C1441.76 394.284 1434.9 392.068 1433.14 395.332C1430.19 400.792 1440.01 404.605 1443.95 403.667C1447.82 402.743 1449.44 398.072 1451.32 395C1457.47 384.938 1458 376.483 1458 365C1458 362.924 1459.21 349.783 1454.96 351.346M2136.64 352.021C2129.78 352.911 2130.79 364.624 2125.96 368.701C2123.17 371.056 2117.71 374.774 2114 375.028C2110.6 375.26 2105.76 371.516 2102.62 374.042C2099.95 376.193 2102.99 379.58 2105.06 380.682C2109 382.787 2115.76 382.209 2120 381.24C2127.18 379.597 2134.13 369.743 2135.76 363C2136.16 361.368 2139.62 351.635 2136.64 352.021z"/>
<path style="fill:#000000; stroke:none;" d="M1552.34 358.176C1548.07 360.331 1547.61 369.918 1547.75 374C1548.26 389.54 1558.62 402.1 1561.66 417C1562.28 419.985 1560.88 435.77 1565.74 434.11C1570.04 432.641 1568.79 418.528 1568.22 415C1564.99 395.073 1549.99 384.743 1555.1 363.005C1555.54 361.171 1555.64 356.505 1552.34 358.176M2181.42 357.844C2156.32 368.724 2138.34 393.561 2113 404.93C2108.65 406.881 2100.77 410.497 2096 409.384C2092.89 408.657 2088.39 400.027 2086.58 401.752C2078.47 409.512 2096.94 414.06 2096.94 417.745C2096.94 420.271 2090.77 422.705 2089 423.815C2081.42 428.558 2075.48 433.958 2073.67 443C2072.83 447.235 2074.19 453.484 2079.84 453.172C2083.76 452.955 2079.98 444.782 2081.02 442C2083.48 435.433 2090.69 430.646 2095.96 426.475C2118.32 408.788 2142.67 394.08 2165 376.096C2169.73 372.285 2185.73 364.832 2187.08 358.859C2187.66 356.293 2182.43 357.408 2181.42 357.844z"/>
<path style="fill:#ffffff; stroke:none;" d="M456.223 365.176C451.515 367.419 450.979 377.579 450.627 382C450.236 386.895 449.552 395.321 450.792 400C453.788 411.312 471.269 429.407 483.941 421.629C486.466 420.079 488.518 417.158 485.663 414.746C482.036 411.682 477.163 415.465 473.209 413.044C457.989 403.724 459.909 390.093 461.531 376C461.829 373.406 460.88 362.957 456.223 365.176z"/>
<path style="fill:#000000; stroke:none;" d="M1879.59 365.176C1876.94 367.157 1878.26 372.472 1879.1 375C1882.13 384.051 1889.11 391.12 1888.63 400.941C1888.59 401.83 1888.53 405.26 1890.41 403.824C1898.93 397.313 1884.71 380.388 1882.8 374C1882.44 372.793 1882.2 363.236 1879.59 365.176z"/>
<path style="fill:#ffffff; stroke:none;" d="M2329.24 370.047C2324.81 371.348 2323.2 376.402 2321.21 379.961C2314.64 391.712 2314 401.64 2314 415C2314 417.215 2312.77 432.059 2316.21 431.369C2319.44 430.721 2321.75 424.766 2322.39 422C2324.43 413.265 2323.14 403.639 2326.11 395C2327.89 389.815 2334.1 384.755 2334.9 379.625C2335.37 376.643 2333.38 368.83 2329.24 370.047M487.15 376.631C483.076 377.316 474.02 387.715 471.534 390.999C471.164 391.487 467.43 396.793 469.711 396.793C471.656 396.793 473.748 394.192 474.986 392.98C479.01 389.043 486.377 386.736 489.377 382.556C490.763 380.625 490.569 376.057 487.15 376.631z"/>
<path style="fill:#000000; stroke:none;" d="M1358.07 381.972C1353.27 384.527 1352.61 394.351 1352.88 399C1353.56 410.589 1353.73 423.505 1348.42 434C1347.04 436.709 1344.58 442.331 1341.5 443.458C1340.51 443.82 1342.75 438.53 1342.94 438C1344.89 432.331 1346.61 426.641 1348.71 421C1349.04 420.123 1350.79 414.851 1347.94 416.106C1344.67 417.539 1343.9 423.059 1342.79 426C1339.81 433.898 1336.1 441.623 1332.02 449C1323.53 464.346 1306.87 474.669 1290 478.523C1275.22 481.899 1266.65 478.577 1264.87 463C1264.72 461.769 1263.51 454.733 1260.87 456.972C1254.87 462.052 1264.55 475.606 1262.7 480.519C1261.21 484.463 1253.21 477.324 1252.37 480.542C1250.13 489.074 1268.59 487.173 1272 487.079C1292.04 486.522 1311.41 481.201 1328 468.583C1342.33 457.683 1356.73 435.379 1357.94 417C1358.56 407.596 1356.71 398.207 1358.8 389C1359.09 387.742 1361.93 379.915 1358.07 381.972M1880.32 390.631C1877.12 391.553 1877.74 397.754 1878.32 400C1880.54 408.713 1889.57 415.381 1890.85 424C1891.12 425.816 1889.13 436.793 1891.2 436.793C1894.46 436.793 1894.98 429.094 1894.95 427C1894.78 415.812 1885.76 410.85 1882.88 401C1882.49 399.668 1882.17 390.098 1880.32 390.631z"/>
<path style="fill:#ffffff; stroke:none;" d="M2362.54 392.176C2356.43 395.267 2358.48 403.06 2359.69 408C2363.11 421.943 2374.94 429.865 2375.98 445C2376.05 446.053 2377.07 457.212 2379.22 455.654C2381.75 453.816 2381 445.717 2381 443C2381.02 428.605 2378.26 417.768 2371.86 405C2370.61 402.506 2366.36 390.244 2362.54 392.176M2334.21 393.631C2330.57 394.238 2329.85 401.178 2329.8 404C2329.68 411.003 2338.89 430.568 2347.81 429.093C2358.36 427.348 2342.32 405.063 2340.28 401C2339.11 398.661 2337.89 393.018 2334.21 393.631M484.138 395.346C480.087 396.605 482.322 401.645 483.676 404C486.888 409.588 492.763 415.033 491.667 422C490.154 431.613 478.296 441.65 482.049 451.999C484.761 459.479 493.52 460.602 498.98 465.329C499.924 466.146 504.594 470.251 502.248 471.694C499.707 473.257 494.807 467.869 493 466.623C486.897 462.414 479.497 460.169 477.279 452.17C476.295 448.625 479.994 441.605 477.879 439.024C475.131 435.672 466.099 435.322 462.109 431.56C460.124 429.689 455.925 412.914 453.002 416.662C451.145 419.043 453.059 423.431 453.54 426C455.731 437.692 461.518 439.608 468.364 447.781C470.595 450.444 463.303 452.201 466.363 457.015C474.648 470.05 491.264 478.992 506 481.996C509.704 482.751 517.864 484.68 521.288 482.411C523.77 480.767 516.76 473.747 515.799 471.999C510.431 462.238 511.6 445.613 503.728 437.752C498.952 432.981 500.237 454.538 500.593 454.079C499.582 455.38 495.35 452.252 494.015 452.073C492.851 451.917 490.276 453.061 489.404 451.983C487.439 449.555 493.882 442.035 495.101 440C501.566 429.21 500.627 414.149 493.46 404C491.659 401.45 488.169 394.092 484.138 395.346M1024 399L1025 400L1024 399z"/>
<path style="fill:#000000; stroke:none;" d="M1264.73 406.631C1262.6 407.121 1263.66 410.725 1264.01 412.001C1265.71 418.277 1265.01 424.755 1263.12 431C1257.09 450.93 1234.27 467.803 1237.76 491C1238.33 494.823 1239.24 509.759 1244.88 509.654C1251.44 509.533 1244.35 494.811 1243.8 492C1239.43 469.345 1263.75 451.558 1268.62 431C1269.42 427.641 1272.78 404.787 1264.73 406.631M639.871 407.631C635.416 408.666 635.24 417.617 634.925 421C633.739 433.748 635.592 447.467 632.84 460C631.442 466.368 625.4 473.626 620 477.006C617.058 478.848 611.838 479.684 610.327 483.194C607.813 489.036 630.094 490.671 633.808 489.311C640.283 486.94 629.581 483.87 629.921 482.339C631.007 477.456 636.833 474.384 638.082 469C640.003 460.718 636.336 450.369 639.51 442.257C641.225 437.875 648.66 450.248 653.573 446.933C654.919 446.025 654.784 444.573 654.164 443.27C653.096 441.027 649.543 438.902 649.926 436.115C650.328 433.187 657.568 429.03 654.327 425.751C652.052 423.448 648.353 428.647 645.144 426.454C641.949 424.269 642.036 407.129 639.871 407.631M2127.06 408.06C2119.81 409.537 2123.82 422.634 2120.97 426.593C2117.91 430.843 2106.06 425.115 2105.75 433.64C2105.74 433.883 2116.7 432.211 2119.49 435.344C2123.26 439.59 2128.33 453.371 2129.22 458.985C2129.56 461.122 2127.73 463.68 2128.9 465.576C2132.36 471.154 2139.38 475.905 2143.71 481C2144.43 481.849 2148.52 486.158 2146.79 487.377C2144.49 488.999 2138.04 484.822 2136 483.885C2126.07 479.318 2115.97 472.973 2113.95 461C2113.5 458.317 2117.11 447.074 2115.55 446.461C2107.56 443.323 2107.18 468.348 2108.17 468.797C2096.71 463.59 2096.71 453.167 2090.73 444.604C2089.47 442.805 2086.35 442.865 2085.04 444.604C2079.61 451.857 2095.71 466.338 2100.04 470.285C2113.81 482.842 2136.31 493.574 2155 495.982C2161.61 496.834 2170.81 497.04 2176.75 493.436C2178 492.681 2179.81 490.609 2177.57 489.758C2172.36 487.775 2166.64 490.756 2161 487.861C2144.68 479.483 2128.46 452.301 2128 434C2127.82 426.782 2127.22 420.209 2128.57 413.005C2128.84 411.603 2129.99 407.464 2127.06 408.06M1552.61 409.176C1545.73 413.004 1550.27 430.378 1551.68 436C1553.57 443.54 1559.31 449.659 1561.95 457C1567 471.076 1563.68 485.401 1556.86 498C1556.25 499.136 1551.51 511.473 1556.02 510.369C1559.46 509.527 1562.32 498.94 1563.76 496C1569.56 484.114 1572.77 468.805 1567.93 456C1564.95 448.114 1558.73 441.094 1556.68 433C1554.8 425.589 1556.84 419.194 1556.1 412.059C1555.93 410.364 1554.64 408.045 1552.61 409.176M265.867 413.086C250.119 413.866 268.675 439.07 270.826 444C272.427 447.669 272.5 454.024 277.871 453.654C282.119 453.362 281.007 447.802 280.211 445C277.906 436.877 270.476 431.695 267.908 424C267.017 421.328 270.473 412.858 265.867 413.086M1469.63 418.631C1465.32 419.946 1469.22 430.498 1469.52 433C1470.33 439.854 1459.74 461.944 1451.65 461.944C1449.47 461.944 1448.65 457.463 1447.88 456C1444.75 450.086 1442.21 446.972 1443.9 440C1444.44 437.756 1448.25 430.97 1446.2 429.086C1443.82 426.905 1441.12 431.393 1440.36 433.019C1438.57 436.868 1438.59 450.192 1432.03 446.953C1424.88 443.414 1427.16 435.681 1432.05 431.39C1433.17 430.41 1437.59 428.371 1437.08 426.406C1436.55 424.402 1430.23 426.492 1428.46 425.293C1425.68 423.42 1421.37 416.093 1416.83 419.27C1415.09 420.489 1422.22 426.017 1422.64 428.019C1423.49 432.043 1420.81 435.93 1421.25 440C1421.74 444.481 1425.32 447.025 1426.82 451C1427.6 453.076 1426.44 456.485 1428 458.168C1429.95 460.265 1434.32 451.855 1438.91 454.762C1442.85 457.265 1444.85 462.541 1443.44 467C1439.41 479.652 1427.48 474.716 1421.99 465.867C1420.47 463.422 1421.24 457.874 1419.02 456.176C1417.64 455.115 1416.2 457.053 1415.75 458.153C1410.89 470.014 1426.82 472.173 1428.4 481.004C1429.87 489.27 1421.37 497.871 1419.84 505.995C1419.23 509.27 1421.12 512.346 1424.84 511.627C1425.87 511.427 1428.11 497.289 1430.68 494.039C1443.95 477.249 1462.57 465.045 1471.49 445C1474.14 439.032 1476.19 431.444 1474.2 425C1473.79 423.691 1471.71 417.999 1469.63 418.631M1882.59 421.176C1880.2 422.958 1880.89 428.451 1881.09 431C1881.94 441.476 1890.46 449.109 1892.02 459C1892.26 460.511 1891.26 472.252 1894.58 470.654C1898.5 468.776 1896.1 460.947 1895.42 458C1892.69 446.252 1883.9 438.672 1884.83 426.005C1884.9 425.038 1885.04 419.351 1882.59 421.176z"/>
<path style="fill:#ffffff; stroke:none;" d="M2358.21 426.086C2352.54 428.887 2351.24 438.352 2345 441.987C2341.45 444.057 2335.43 441.539 2333.18 445.191C2327.07 455.105 2343.08 457.267 2348.99 454.5C2355.14 451.617 2362.48 441.526 2364.14 435C2365.07 431.357 2364.01 423.225 2358.21 426.086z"/>
<path style="fill:#000000; stroke:none;" d="M2478.59 426.461C2473.95 428.21 2480.76 444.151 2480.38 448C2478.83 463.658 2466.51 474.949 2457.47 487C2456.69 488.046 2448.24 498.793 2453.15 498.793C2457.11 498.793 2462.35 488.844 2464.42 486C2474.23 472.574 2483.33 461.911 2485.58 445C2486.01 441.758 2485.43 423.879 2478.59 426.461M1980.23 430.086C1977.98 432.999 1986.09 442.421 1987.59 439.288C1988.78 436.81 1982.45 427.2 1980.23 430.086M1659.96 435.176C1657.98 437.091 1660.27 445.631 1660.86 448C1663.69 459.317 1662.43 470.585 1661.29 482C1661.12 483.728 1661.14 490.151 1664.62 488.079C1667.57 486.327 1667.04 480.894 1667.42 478C1668.97 466.398 1667.05 456.295 1665.14 445C1664.95 443.83 1662.82 432.416 1659.96 435.176M690.414 445.086C681.855 450.251 689.973 470.303 686.968 477.956C683.887 485.8 671.722 483.518 665 484.59C663.024 484.905 657.207 485.16 657.207 488.13C657.207 492.713 667.55 490.075 670 490.015C680.292 489.763 689.874 488.046 700 487.104C704.028 486.73 710.351 488.289 713.623 485.258C716.887 482.236 712.358 478.89 709.995 477.22C705.578 474.098 698.887 472.27 695.589 467.867C690.954 461.68 694.803 454.752 694.566 448.059C694.485 445.8 692.84 443.623 690.414 445.086M1883.67 456.176C1879.44 459.054 1883.83 468.538 1885 472C1889.82 486.147 1888.12 495.379 1883.04 508.995C1882.51 510.408 1881.27 515.585 1884.68 513.824C1897.92 506.993 1892.11 481.167 1888.89 471C1888.18 468.784 1885.78 454.739 1883.67 456.176M1556.02 460.346C1551.35 462.026 1543.48 478.488 1541.16 483C1540.6 484.086 1536.78 490.729 1540.23 490.654C1546.6 490.517 1555.28 474.303 1557.05 469C1557.52 467.61 1559.98 458.923 1556.02 460.346M1462.87 466.346C1456.66 468.879 1459.2 479.03 1456.49 483.682C1453.4 488.971 1441.59 482.559 1439.75 488.259C1438.48 492.209 1444.83 492.014 1447 491.985C1453.99 491.893 1472.06 494.092 1477.62 490.445C1479.16 489.438 1478.97 488.236 1477.62 487.169C1470.92 481.85 1464.3 479.983 1464.71 470.016C1464.76 468.88 1465.05 465.458 1462.87 466.346M2148.7 468.24C2143.55 471.459 2159.41 478.176 2161 479.177C2170.03 484.879 2195.92 496.974 2205.83 488.586C2206.41 488.097 2208.95 485.61 2207.25 484.978C2204.33 483.892 2198.49 486.197 2195 485.7C2185.15 484.296 2173.82 480.274 2165 475.741C2161.84 474.115 2152.3 465.985 2148.7 468.24M2220.35 468.33C2216.81 468.291 2212.79 473.53 2210 475.312C2206.01 477.859 2201.49 477.88 2197.21 479.514C2196.17 479.908 2194.74 480.842 2196.47 481.53C2203.31 484.267 2213 478.497 2217.89 474.181C2218.4 473.729 2223.37 468.364 2220.35 468.33M2480.11 478.346C2476.16 478.425 2478.99 485.072 2482.64 484.534C2485.87 484.059 2482.45 478.299 2480.11 478.346M1883.4 487.631C1881.15 488.179 1872.54 501.398 1877.16 501.029C1883.41 500.531 1886.7 486.826 1883.4 487.631M2382.7 489.133C2375.57 493.485 2385.73 501.474 2391.85 497.822C2398.71 493.725 2386.29 486.945 2382.7 489.133M1646.28 524.176C1643.28 525.733 1639.56 532.827 1638.76 535.995C1638.32 537.724 1638.77 541.662 1641.53 540.654C1646.07 538.993 1650.6 521.929 1646.28 524.176M2275 555L2276 556L2275 555z"/>
</svg>
